<?xml version="1.0" encoding="UTF-8"?>
<svg xmlns="http://www.w3.org/2000/svg"
     xmlns:xlink="http://www.w3.org/1999/xlink"
     xmlns:gadfly="http://www.gadflyjl.org/ns"
     version="1.2"
     width="355.6mm" height="203.2mm" viewBox="0 0 355.6 203.2"
     stroke="none"
     fill="#000000"
     stroke-width="0.3"
     font-size="3.88"
>
<g class="plotroot xscalable yscalable" id="img-4b561a7d-1">
  <g font-size="3.88" font-family="'PT Sans','Helvetica Neue','Helvetica',sans-serif" fill="#564A55" stroke="#000000" stroke-opacity="0.000" id="img-4b561a7d-2">
    <text x="183.93" y="191.59" text-anchor="middle" dy="0.6em">x</text>
  </g>
  <g class="guide xlabels" font-size="2.82" font-family="'PT Sans Caption','Helvetica Neue','Helvetica',sans-serif" fill="#6C606B" id="img-4b561a7d-3">
    <text x="19.27" y="184.92" text-anchor="middle" dy="0.6em">0</text>
    <text x="101.6" y="184.92" text-anchor="middle" dy="0.6em">100</text>
    <text x="183.93" y="184.92" text-anchor="middle" dy="0.6em">200</text>
    <text x="266.27" y="184.92" text-anchor="middle" dy="0.6em">300</text>
    <text x="348.6" y="184.92" text-anchor="middle" dy="0.6em">400</text>
  </g>
<g clip-path="url(#img-4b561a7d-4)">
  <g id="img-4b561a7d-5">
    <g pointer-events="visible" opacity="1" fill="#000000" fill-opacity="0.000" stroke="#000000" stroke-opacity="0.000" class="guide background" id="img-4b561a7d-6">
      <rect x="17.27" y="5" width="333.33" height="178.92"/>
    </g>
    <g class="guide ygridlines xfixed" stroke-dasharray="0.5,0.5" stroke-width="0.2" stroke="#D0D0E0" id="img-4b561a7d-7">
      <path fill="none" d="M17.27,181.92 L 350.6 181.92"/>
      <path fill="none" d="M17.27,138.19 L 350.6 138.19"/>
      <path fill="none" d="M17.27,94.46 L 350.6 94.46"/>
      <path fill="none" d="M17.27,50.73 L 350.6 50.73"/>
      <path fill="none" d="M17.27,7 L 350.6 7"/>
    </g>
    <g class="guide xgridlines yfixed" stroke-dasharray="0.5,0.5" stroke-width="0.2" stroke="#D0D0E0" id="img-4b561a7d-8">
      <path fill="none" d="M19.27,5 L 19.27 183.92"/>
      <path fill="none" d="M101.6,5 L 101.6 183.92"/>
      <path fill="none" d="M183.93,5 L 183.93 183.92"/>
      <path fill="none" d="M266.27,5 L 266.27 183.92"/>
      <path fill="none" d="M348.6,5 L 348.6 183.92"/>
    </g>
    <g class="plotpanel" id="img-4b561a7d-9">
      <g stroke-width="0.3" fill="#000000" fill-opacity="0.000" class="geometry" stroke-dasharray="none" stroke="#0000FF" id="img-4b561a7d-10">
        <path fill="none" d="M20.09,78.88 L 20.91 78.47 21.74 78.05 22.56 77.64 23.38 77.23 24.21 76.81 25.03 76.4 25.85 75.99 26.68 75.58 27.5 75.16 28.32 74.75 29.15 74.34 29.97 73.92 30.79 73.51 31.62 73.1 32.44 72.68 33.26 72.27 34.09 71.86 34.91 71.44 35.73 71.03 36.56 70.62 37.38 70.21 38.2 69.79 39.03 69.38 39.85 68.97 40.67 68.55 41.5 68.14 42.32 67.73 43.14 67.31 43.97 66.9 44.79 66.49 45.61 66.07 46.44 65.66 47.26 65.25 48.08 64.84 48.91 64.42 49.73 64.01 50.55 63.79 51.38 63.58 52.2 63.37 53.02 63.15 53.85 62.94 54.67 62.72 55.49 62.51 56.32 62.36 57.14 62.22 57.96 62.08 58.79 61.93 59.61 61.79 60.43 61.64 61.26 61.5 62.08 61.36 62.9 61.21 63.73 61.07 64.55 60.92 65.37 60.78 66.2 60.64 67.02 60.67 67.84 60.69 68.67 60.72 69.49 60.75 70.31 60.78 71.14 60.81 71.96 60.84 72.78 60.87 73.61 61 74.43 61.12 75.25 61.25 76.08 61.37 76.9 61.5 77.72 61.63 78.55 61.75 79.37 61.88 80.19 62.01 81.02 62.13 81.84 62.26 82.66 62.39 83.49 62.7 84.31 63.02 85.13 63.34 85.96 63.66 86.78 63.98 87.6 64.3 88.43 64.62 89.25 64.94 90.07 65.26 90.9 65.58 91.72 65.89 92.54 66.21 93.37 66.68 94.19 67.14 95.01 67.61 95.84 68.07 96.66 68.54 97.48 69 98.31 69.47 99.13 69.93 99.95 70.4 100.78 70.86 101.6 71.33 102.42 71.79 103.25 72.25 104.07 72.72 104.89 73.18 105.72 73.65 106.54 74.11 107.36 74.58 108.19 75.04 109.01 75.51 109.83 75.97 110.66 76.44 111.48 76.9 112.3 77.37 113.13 77.83 113.95 78.3 114.77 78.76 115.6 79.23 116.42 79.69 117.24 80.15 118.07 80.62 118.89 81.08 119.71 81.55 120.54 82.01 121.36 82.48 122.18 82.94 123.01 83.41 123.83 83.87 124.65 84.34 125.48 84.8 126.3 85.27 127.12 85.73 127.95 86.2 128.77 86.66 129.59 87.12 130.42 87.59 131.24 88.05 132.06 88.52 132.89 88.98 133.71 89.45 134.53 89.91 135.36 90.38 136.18 90.84 137 91.31 137.83 91.77 138.65 92.24 139.47 92.7 140.3 93.17 141.12 93.63 141.94 94.1 142.77 94.56 143.59 95.02 144.41 95.49 145.24 95.95 146.06 96.42 146.88 96.88 147.71 97.35 148.53 97.81 149.35 98.28 150.18 98.74 151 99.21 151.82 99.67 152.65 100.14 153.47 100.6 154.29 101.07 155.12 101.53 155.94 101.99 156.76 102.46 157.59 102.92 158.41 103.39 159.23 103.85 160.06 104.25 160.88 104.64 161.7 105.04 162.53 105.43 163.35 105.83 164.17 106.22 165 106.61 165.82 107.01 166.64 107.38 167.47 107.75 168.29 108.12 169.11 108.49 169.94 108.86 170.76 109.23 171.58 109.6 172.41 109.97 173.23 110.32 174.05 110.66 174.88 111.01 175.7 111.35 176.52 111.69 177.35 112.04 178.17 112.35 178.99 112.67 179.82 112.99 180.64 113.31 181.46 113.63 182.29 113.95 183.11 114.26 183.93 114.58 184.76 114.81 185.58 115.03 186.4 115.26 187.23 115.48 188.05 115.71 188.87 115.93 189.7 116.16 190.52 116.38 191.34 116.5 192.17 116.61 192.99 116.72 193.81 116.83 194.64 116.95 195.46 117.06 196.28 117.17 197.11 117.28 197.93 117.27 198.75 117.26 199.58 117.24 200.4 117.23 201.22 117.22 202.05 117.2 202.87 117.19 203.69 117.17 204.52 117.03 205.34 116.88 206.16 116.73 206.99 116.58 207.81 116.43 208.63 116.28 209.46 116.13 210.28 115.98 211.1 115.83 211.93 115.68 212.75 115.54 213.57 115.39 214.4 115.24 215.22 115.09 216.04 114.94 216.87 114.79 217.69 114.64 218.51 114.49 219.34 114.34 220.16 114.2 220.98 114.05 221.81 113.9 222.63 113.75 223.45 113.6 224.28 113.45 225.1 113.3 225.92 113.15 226.75 113 227.57 112 228.39 110.99 229.22 109.98 230.04 108.97 230.86 107.96 231.69 106.96 232.51 105.95 233.33 104.94 234.16 103.93 234.98 102.92 235.8 101.92 236.63 100.91 237.45 99.9 238.27 98.89 239.1 97.88 239.92 96.88 240.74 95.87 241.57 94.86 242.39 93.85 243.21 92.84 244.04 91.84 244.86 90.83 245.68 89.82 246.51 88.81 247.33 87.8 248.15 86.8 248.98 85.79 249.8 84.78 250.62 83.77 251.45 82.76 252.27 81.76 253.09 80.75 253.92 79.74 254.74 78.73 255.56 77.72 256.39 76.72 257.21 75.71 258.03 74.7 258.86 73.69 259.68 72.68 260.5 71.68 261.33 70.67 262.15 69.66 262.97 68.65 263.8 67.64 264.62 66.64 265.44 65.63 266.27 65.75 267.09 65.88 267.91 66.01 268.74 66.13 269.56 66.26 270.38 66.38 271.21 66.51 272.03 66.64 272.85 66.76 273.68 66.89 274.5 67.01 275.32 67.14 276.15 67.27 276.97 67.39 277.79 67.52 278.62 67.65 279.44 67.77 280.26 67.9 281.09 68.02 281.91 68.15 282.73 68.28 283.56 68.4 284.38 68.53 285.2 68.65 286.03 68.78 286.85 68.91 287.67 69.03 288.5 69.16 289.32 69.28 290.14 69.41 290.97 69.54 291.79 69.66 292.61 69.79 293.44 69.91 294.26 70.04 295.08 70.17 295.91 70.29 296.73 70.42 297.55 70.54 298.38 70.67 299.2 70.8 300.02 70.92 300.85 71.05 301.67 71.17 302.49 71.3 303.32 71.43 304.14 71.55 304.96 71.68 305.79 71.8 306.61 71.93 307.43 72.06 308.26 72.18 309.08 72.31 309.9 72.43 310.73 72.56 311.55 72.69 312.37 72.81 313.2 72.94 314.02 73.06 314.84 73.19 315.67 73.32 316.49 73.44 317.31 73.57 318.14 73.69 318.96 73.82 319.78 73.95 320.61 74.07 321.43 74.2 322.25 74.32 323.08 74.45 323.9 74.58 324.72 74.7 325.55 74.83 326.37 74.95 327.19 75.08 328.02 75.21 328.84 75.33 329.66 75.46 330.49 75.58 331.31 75.71 332.13 75.84 332.96 75.96 333.78 76.09 334.6 76.22 335.43 76.34 336.25 76.47 337.07 76.59 337.9 76.72 338.72 76.85 339.54 76.97 340.37 77.1 341.19 77.22 342.01 77.35 342.84 77.48 343.66 77.6 344.48 77.73 345.31 77.85 346.13 77.98 346.95 78.11 347.78 78.23 348.6 78.36"/>
      </g>
      <g stroke-width="0.3" fill="#000000" fill-opacity="0.000" class="geometry" stroke-dasharray="none" stroke="#FF0000" id="img-4b561a7d-11">
        <path fill="none" d="M20.09,87.01 L 20.91 102.88 21.74 79.08 22.56 76.64 23.38 95.14 24.21 64.17 25.03 63.88 25.85 79.67 26.68 74.57 27.5 76.27 28.32 80.7 29.15 68.42 29.97 85.35 30.79 48.68 31.62 78.8 32.44 75.21 33.26 62.4 34.09 75.3 34.91 77.03 35.73 86.38 36.56 71.29 37.38 92.37 38.2 65.17 39.03 52.93 39.85 82.99 40.67 62.35 41.5 56.85 42.32 93.9 43.14 91.58 43.97 64.88 44.79 77.31 45.61 62.7 46.44 60.74 47.26 61.8 48.08 53.9 48.91 61.75 49.73 54.59 50.55 85.67 51.38 69.85 52.2 71.34 53.02 90.01 53.85 65.29 54.67 82.21 55.49 49.48 56.32 78.3 57.14 60.49 57.96 64.24 58.79 78.9 59.61 94.97 60.43 66.96 61.26 79.14 62.08 57.51 62.9 58.6 63.73 42.75 64.55 56.89 65.37 72.78 66.2 59.03 67.02 76.95 67.84 63.66 68.67 63.73 69.49 62.79 70.31 66.65 71.14 47.8 71.96 86.44 72.78 55.93 73.61 49.49 74.43 51.34 75.25 53.04 76.08 59.78 76.9 51.12 77.72 52.23 78.55 62.74 79.37 64.03 80.19 62.65 81.02 77.81 81.84 61.22 82.66 56.29 83.49 53.4 84.31 38.28 85.13 61.52 85.96 48.43 86.78 45.81 87.6 43.64 88.43 68.69 89.25 52.59 90.07 51.94 90.9 67.97 91.72 64.17 92.54 39.93 93.37 55.55 94.19 48.4 95.01 52.05 95.84 61.23 96.66 59.92 97.48 46.46 98.31 64.43 99.13 41.41 99.95 43.89 100.78 61.82 101.6 54.21 102.42 67.36 103.25 81.72 104.07 40.94 104.89 61.73 105.72 51.68 106.54 53.96 107.36 57.79 108.19 72.29 109.01 72.6 109.83 66.14 110.66 77.83 111.48 77.17 112.3 45.06 113.13 64.69 113.95 82.44 114.77 68.06 115.6 83.37 116.42 87.32 117.24 74.09 118.07 59.21 118.89 71.08 119.71 65.21 120.54 90.19 121.36 81.96 122.18 80.41 123.01 93.93 123.83 96.37 124.65 67.9 125.48 81.02 126.3 90.68 127.12 72.69 127.95 81.27 128.77 98.35 129.59 68.84 130.42 83.66 131.24 69.11 132.06 74.63 132.89 99.58 133.71 108.61 134.53 93.67 135.36 98.09 136.18 105.87 137 89.33 137.83 77.38 138.65 105.12 139.47 110.11 140.3 103.29 141.12 92.41 141.94 113.36 142.77 118.96 143.59 104.9 144.41 104.3 145.24 97.19 146.06 111.49 146.88 105.76 147.71 109.62 148.53 105.08 149.35 84.02 150.18 112.23 151 122.07 151.82 98.36 152.65 116.49 153.47 104.28 154.29 113.11 155.12 97.97 155.94 97.86 156.76 107.9 157.59 132.3 158.41 103.73 159.23 84.69 160.06 92.35 160.88 126.56 161.7 106.98 162.53 115.01 163.35 119.63 164.17 122.5 165 102.63 165.82 112.17 166.64 105.93 167.47 111.61 168.29 113 169.11 102.15 169.94 97.58 170.76 79.55 171.58 125.18 172.41 120.91 173.23 94 174.05 112.85 174.88 125.97 175.7 103.83 176.52 87.72 177.35 98.93 178.17 82.65 178.99 101.83 179.82 84.11 180.64 113.15 181.46 123.76 182.29 111.7 183.11 93.43 183.93 123.81 184.76 100.95 185.58 117.29 186.4 102.29 187.23 124.07 188.05 108.63 188.87 136.18 189.7 116.47 190.52 104.06 191.34 114.45 192.17 94.14 192.99 118.76 193.81 141.1 194.64 126.87 195.46 96.99 196.28 112.44 197.11 106.1 197.93 98.81 198.75 139.13 199.58 119.89 200.4 120.79 201.22 125.03 202.05 114.18 202.87 91.96 203.69 112.53 204.52 96.05 205.34 121.4 206.16 112.29 206.99 122.78 207.81 104.92 208.63 116.04 209.46 106.56 210.28 104.22 211.1 114.13 211.93 101.56 212.75 83.05 213.57 106.58 214.4 113.73 215.22 101.72 216.04 113.08 216.87 128.46 217.69 107.69 218.51 114.24 219.34 117.92 220.16 97.67 220.98 90.09 221.81 121.51 222.63 113.41 223.45 125.49 224.28 106.08 225.1 146.15 225.92 102.26 226.75 112.5 227.57 112.05 228.39 99.69 229.22 119.33 230.04 117.59 230.86 132.63 231.69 137.91 232.51 125.43 233.33 112.64 234.16 121.89 234.98 130.75 235.8 97.66 236.63 119.54 237.45 108.82 238.27 107.15 239.1 108.88 239.92 98.88 240.74 106.01 241.57 122.85 242.39 112.98 243.21 94.77 244.04 112.91 244.86 99.45 245.68 105.71 246.51 107.24 247.33 103.7 248.15 94.04 248.98 84.96 249.8 87.24 250.62 70.22 251.45 85.87 252.27 101.03 253.09 79.46 253.92 77.12 254.74 72.38 255.56 68.44 256.39 56.7 257.21 79.12 258.03 66.99 258.86 69.05 259.68 74.96 260.5 37.79 261.33 67.66 262.15 81.25 262.97 38 263.8 55.42 264.62 72.84 265.44 48.49 266.27 38.45 267.09 67.47 267.91 54.55 268.74 58.76 269.56 72.81 270.38 42.63 271.21 58.98 272.03 52.35 272.85 69.4 273.68 69.21 274.5 57.1 275.32 60.43 276.15 38.2 276.97 66.67 277.79 34.65 278.62 44.49 279.44 90.41 280.26 87.56 281.09 73.65 281.91 69.17 282.73 67.23 283.56 56.98 284.38 78.05 285.2 78.65 286.03 72.43 286.85 70.68 287.67 67.36 288.5 57.75 289.32 64.09 290.14 95.82 290.97 64.32 291.79 63.43 292.61 66.34 293.44 58.12 294.26 71.63 295.08 85.36 295.91 79.1 296.73 109.88 297.55 72.16 298.38 77.44 299.2 87.34 300.02 88.79 300.85 94.99 301.67 82.05 302.49 77.06 303.32 86.98 304.14 89.82 304.96 84.35 305.79 86.78 306.61 97.66 307.43 68.76 308.26 79.58 309.08 68.21 309.9 91.19 310.73 98.99 311.55 73.37 312.37 83.07 313.2 93.18 314.02 84.08 314.84 108.92 315.67 67.99 316.49 94.74 317.31 90.55 318.14 63.59 318.96 92.74 319.78 85.88 320.61 86.75 321.43 58.52 322.25 78.35 323.08 93.25 323.9 93.47 324.72 55.6 325.55 52.6 326.37 56.22 327.19 93.79 328.02 79.77 328.84 79.23 329.66 72.23 330.49 83.42 331.31 88.39 332.13 81.08 332.96 60.67 333.78 43.39 334.6 71.16 335.43 77.32 336.25 64.26 337.07 79.51 337.9 48.34 338.72 57.9 339.54 88.17 340.37 80.51 341.19 53.78 342.01 65.93 342.84 65.51 343.66 92.72 344.48 66.98 345.31 60.63 346.13 77.62 346.95 82.07 347.78 71.01 348.6 82.05"/>
      </g>
    </g>
  </g>
</g>
  <g class="guide ylabels" font-size="2.82" font-family="'PT Sans Caption','Helvetica Neue','Helvetica',sans-serif" fill="#6C606B" id="img-4b561a7d-12">
    <text x="16.27" y="181.92" text-anchor="end" dy="0.35em">-20</text>
    <text x="16.27" y="138.19" text-anchor="end" dy="0.35em">-10</text>
    <text x="16.27" y="94.46" text-anchor="end" dy="0.35em">0</text>
    <text x="16.27" y="50.73" text-anchor="end" dy="0.35em">10</text>
    <text x="16.27" y="7" text-anchor="end" dy="0.35em">20</text>
  </g>
  <g font-size="3.88" font-family="'PT Sans','Helvetica Neue','Helvetica',sans-serif" fill="#564A55" stroke="#000000" stroke-opacity="0.000" id="img-4b561a7d-13">
    <text x="8.81" y="94.46" text-anchor="end" dy="0.35em">y</text>
  </g>
</g>
<defs>
  <clipPath id="img-4b561a7d-4">
  <path d="M17.27,5 L 350.6 5 350.6 183.92 17.27 183.92" />
</clipPath>
</defs>
</svg>
