<?xml version="1.0" encoding="UTF-8"?>
<svg xmlns="http://www.w3.org/2000/svg"
     xmlns:xlink="http://www.w3.org/1999/xlink"
     xmlns:gadfly="http://www.gadflyjl.org/ns"
     version="1.2"
     width="355.6mm" height="203.2mm" viewBox="0 0 355.6 203.2"
     stroke="none"
     fill="#000000"
     stroke-width="0.3"
     font-size="3.88"
>
<g class="plotroot xscalable yscalable" id="img-89784b4d-1">
  <g font-size="3.88" font-family="'PT Sans','Helvetica Neue','Helvetica',sans-serif" fill="#564A55" stroke="#000000" stroke-opacity="0.000" id="img-89784b4d-2">
    <text x="183.1" y="191.59" text-anchor="middle" dy="0.6em">x</text>
  </g>
  <g class="guide xlabels" font-size="2.82" font-family="'PT Sans Caption','Helvetica Neue','Helvetica',sans-serif" fill="#6C606B" id="img-89784b4d-3">
    <text x="17.59" y="184.92" text-anchor="middle" dy="0.6em">0</text>
    <text x="183.1" y="184.92" text-anchor="middle" dy="0.6em">50</text>
    <text x="348.6" y="184.92" text-anchor="middle" dy="0.6em">100</text>
  </g>
<g clip-path="url(#img-89784b4d-4)">
  <g id="img-89784b4d-5">
    <g pointer-events="visible" opacity="1" fill="#000000" fill-opacity="0.000" stroke="#000000" stroke-opacity="0.000" class="guide background" id="img-89784b4d-6">
      <rect x="15.59" y="5" width="335.01" height="178.92"/>
    </g>
    <g class="guide ygridlines xfixed" stroke-dasharray="0.5,0.5" stroke-width="0.2" stroke="#D0D0E0" id="img-89784b4d-7">
      <path fill="none" d="M15.59,181.92 L 350.6 181.92"/>
      <path fill="none" d="M15.59,138.19 L 350.6 138.19"/>
      <path fill="none" d="M15.59,94.46 L 350.6 94.46"/>
      <path fill="none" d="M15.59,50.73 L 350.6 50.73"/>
      <path fill="none" d="M15.59,7 L 350.6 7"/>
    </g>
    <g class="guide xgridlines yfixed" stroke-dasharray="0.5,0.5" stroke-width="0.2" stroke="#D0D0E0" id="img-89784b4d-8">
      <path fill="none" d="M17.59,5 L 17.59 183.92"/>
      <path fill="none" d="M183.1,5 L 183.1 183.92"/>
      <path fill="none" d="M348.6,5 L 348.6 183.92"/>
    </g>
    <g class="plotpanel" id="img-89784b4d-9">
      <g stroke-width="0.3" fill="#000000" fill-opacity="0.000" class="geometry" stroke-dasharray="none" stroke="#00BFFF" id="img-89784b4d-10">
        <path fill="none" d="M20.9,50.73 L 24.21 50.73 27.52 43.61 30.83 50.73 34.14 58.89 37.45 56.89 40.76 27.38 44.07 50.73 47.38 50.73 50.69 50.73 54 62.96 57.31 36.68 60.62 51.76 63.93 53.73 67.24 60.16 70.55 50.73 73.86 55.52 77.17 50.58 80.48 50.41 83.79 50.73 87.1 73.96 90.41 50.73 93.72 152.37 97.03 50.73 100.34 54.72 103.65 53.69 106.96 50.73 110.27 50.73 113.58 41.54 116.89 50.73 120.2 50.73 123.51 55.93 126.82 50.73 130.14 50.73 133.45 50.73 136.76 51.92 140.07 50.73 143.38 50.73 146.69 50.73 150 50.73 153.31 60.7 156.62 50.73 159.93 50.73 163.24 50.73 166.55 50.73 169.86 50.73 173.17 50.73 176.48 50.73 179.79 50.73 183.1 50.73 186.41 50.73 189.72 50.73 193.03 50.73 196.34 57 199.65 50.79 202.96 50.73 206.27 50.73 209.58 50.73 212.89 50.73 216.2 50.73 219.51 50.73 222.82 50.73 226.13 50.73 229.44 50.73 232.75 50.73 236.06 50.73 239.37 50.73 242.68 50.73 245.99 50.73 249.3 50.73 252.61 52.05 255.92 51.45 259.23 50.77 262.54 50.73 265.85 50.73 269.16 50.73 272.47 50.73 275.78 50.73 279.09 50.73 282.4 50.73 285.71 50.73 289.02 50.73 292.33 50.73 295.64 50.73 298.95 50.73 302.26 50.73 305.57 50.73 308.88 50.73 312.19 50.73 315.5 50.73 318.81 50.69 322.12 50.69 325.43 14.75 328.74 45.98 332.05 50.73 335.36 50.73 338.67 50.73 341.98 50.73 345.29 50.73"/>
      </g>
      <g class="geometry" id="img-89784b4d-11">
        <g class="color_RGBA{Float32}(0.0f0,0.74736935f0,1.0f0,1.0f0)" stroke="#FFFFFF" stroke-width="0.3" fill="#00BFFF" id="img-89784b4d-12">
          <use xlink:href="#img-89784b4d-13" x="20.9" y="50.73"/>
          <use xlink:href="#img-89784b4d-13" x="24.21" y="50.73"/>
          <use xlink:href="#img-89784b4d-13" x="27.52" y="43.61"/>
          <use xlink:href="#img-89784b4d-13" x="30.83" y="50.73"/>
          <use xlink:href="#img-89784b4d-13" x="34.14" y="58.89"/>
          <use xlink:href="#img-89784b4d-13" x="37.45" y="56.89"/>
          <use xlink:href="#img-89784b4d-13" x="40.76" y="27.38"/>
          <use xlink:href="#img-89784b4d-13" x="44.07" y="50.73"/>
          <use xlink:href="#img-89784b4d-13" x="47.38" y="50.73"/>
          <use xlink:href="#img-89784b4d-13" x="50.69" y="50.73"/>
          <use xlink:href="#img-89784b4d-13" x="54" y="62.96"/>
          <use xlink:href="#img-89784b4d-13" x="57.31" y="36.68"/>
          <use xlink:href="#img-89784b4d-13" x="60.62" y="51.76"/>
          <use xlink:href="#img-89784b4d-13" x="63.93" y="53.73"/>
          <use xlink:href="#img-89784b4d-13" x="67.24" y="60.16"/>
          <use xlink:href="#img-89784b4d-13" x="70.55" y="50.73"/>
          <use xlink:href="#img-89784b4d-13" x="73.86" y="55.52"/>
          <use xlink:href="#img-89784b4d-13" x="77.17" y="50.58"/>
          <use xlink:href="#img-89784b4d-13" x="80.48" y="50.41"/>
          <use xlink:href="#img-89784b4d-13" x="83.79" y="50.73"/>
          <use xlink:href="#img-89784b4d-13" x="87.1" y="73.96"/>
          <use xlink:href="#img-89784b4d-13" x="90.41" y="50.73"/>
          <use xlink:href="#img-89784b4d-13" x="93.72" y="152.37"/>
          <use xlink:href="#img-89784b4d-13" x="97.03" y="50.73"/>
          <use xlink:href="#img-89784b4d-13" x="100.34" y="54.72"/>
          <use xlink:href="#img-89784b4d-13" x="103.65" y="53.69"/>
          <use xlink:href="#img-89784b4d-13" x="106.96" y="50.73"/>
          <use xlink:href="#img-89784b4d-13" x="110.27" y="50.73"/>
          <use xlink:href="#img-89784b4d-13" x="113.58" y="41.54"/>
          <use xlink:href="#img-89784b4d-13" x="116.89" y="50.73"/>
          <use xlink:href="#img-89784b4d-13" x="120.2" y="50.73"/>
          <use xlink:href="#img-89784b4d-13" x="123.51" y="55.93"/>
          <use xlink:href="#img-89784b4d-13" x="126.82" y="50.73"/>
          <use xlink:href="#img-89784b4d-13" x="130.14" y="50.73"/>
          <use xlink:href="#img-89784b4d-13" x="133.45" y="50.73"/>
          <use xlink:href="#img-89784b4d-13" x="136.76" y="51.92"/>
          <use xlink:href="#img-89784b4d-13" x="140.07" y="50.73"/>
          <use xlink:href="#img-89784b4d-13" x="143.38" y="50.73"/>
          <use xlink:href="#img-89784b4d-13" x="146.69" y="50.73"/>
          <use xlink:href="#img-89784b4d-13" x="150" y="50.73"/>
          <use xlink:href="#img-89784b4d-13" x="153.31" y="60.7"/>
          <use xlink:href="#img-89784b4d-13" x="156.62" y="50.73"/>
          <use xlink:href="#img-89784b4d-13" x="159.93" y="50.73"/>
          <use xlink:href="#img-89784b4d-13" x="163.24" y="50.73"/>
          <use xlink:href="#img-89784b4d-13" x="166.55" y="50.73"/>
          <use xlink:href="#img-89784b4d-13" x="169.86" y="50.73"/>
          <use xlink:href="#img-89784b4d-13" x="173.17" y="50.73"/>
          <use xlink:href="#img-89784b4d-13" x="176.48" y="50.73"/>
          <use xlink:href="#img-89784b4d-13" x="179.79" y="50.73"/>
          <use xlink:href="#img-89784b4d-13" x="183.1" y="50.73"/>
          <use xlink:href="#img-89784b4d-13" x="186.41" y="50.73"/>
          <use xlink:href="#img-89784b4d-13" x="189.72" y="50.73"/>
          <use xlink:href="#img-89784b4d-13" x="193.03" y="50.73"/>
          <use xlink:href="#img-89784b4d-13" x="196.34" y="57"/>
          <use xlink:href="#img-89784b4d-13" x="199.65" y="50.79"/>
          <use xlink:href="#img-89784b4d-13" x="202.96" y="50.73"/>
          <use xlink:href="#img-89784b4d-13" x="206.27" y="50.73"/>
          <use xlink:href="#img-89784b4d-13" x="209.58" y="50.73"/>
          <use xlink:href="#img-89784b4d-13" x="212.89" y="50.73"/>
          <use xlink:href="#img-89784b4d-13" x="216.2" y="50.73"/>
          <use xlink:href="#img-89784b4d-13" x="219.51" y="50.73"/>
          <use xlink:href="#img-89784b4d-13" x="222.82" y="50.73"/>
          <use xlink:href="#img-89784b4d-13" x="226.13" y="50.73"/>
          <use xlink:href="#img-89784b4d-13" x="229.44" y="50.73"/>
          <use xlink:href="#img-89784b4d-13" x="232.75" y="50.73"/>
          <use xlink:href="#img-89784b4d-13" x="236.06" y="50.73"/>
          <use xlink:href="#img-89784b4d-13" x="239.37" y="50.73"/>
          <use xlink:href="#img-89784b4d-13" x="242.68" y="50.73"/>
          <use xlink:href="#img-89784b4d-13" x="245.99" y="50.73"/>
          <use xlink:href="#img-89784b4d-13" x="249.3" y="50.73"/>
          <use xlink:href="#img-89784b4d-13" x="252.61" y="52.05"/>
          <use xlink:href="#img-89784b4d-13" x="255.92" y="51.45"/>
          <use xlink:href="#img-89784b4d-13" x="259.23" y="50.77"/>
          <use xlink:href="#img-89784b4d-13" x="262.54" y="50.73"/>
          <use xlink:href="#img-89784b4d-13" x="265.85" y="50.73"/>
          <use xlink:href="#img-89784b4d-13" x="269.16" y="50.73"/>
          <use xlink:href="#img-89784b4d-13" x="272.47" y="50.73"/>
          <use xlink:href="#img-89784b4d-13" x="275.78" y="50.73"/>
          <use xlink:href="#img-89784b4d-13" x="279.09" y="50.73"/>
          <use xlink:href="#img-89784b4d-13" x="282.4" y="50.73"/>
          <use xlink:href="#img-89784b4d-13" x="285.71" y="50.73"/>
          <use xlink:href="#img-89784b4d-13" x="289.02" y="50.73"/>
          <use xlink:href="#img-89784b4d-13" x="292.33" y="50.73"/>
          <use xlink:href="#img-89784b4d-13" x="295.64" y="50.73"/>
          <use xlink:href="#img-89784b4d-13" x="298.95" y="50.73"/>
          <use xlink:href="#img-89784b4d-13" x="302.26" y="50.73"/>
          <use xlink:href="#img-89784b4d-13" x="305.57" y="50.73"/>
          <use xlink:href="#img-89784b4d-13" x="308.88" y="50.73"/>
          <use xlink:href="#img-89784b4d-13" x="312.19" y="50.73"/>
          <use xlink:href="#img-89784b4d-13" x="315.5" y="50.73"/>
          <use xlink:href="#img-89784b4d-13" x="318.81" y="50.69"/>
          <use xlink:href="#img-89784b4d-13" x="322.12" y="50.69"/>
          <use xlink:href="#img-89784b4d-13" x="325.43" y="14.75"/>
          <use xlink:href="#img-89784b4d-13" x="328.74" y="45.98"/>
          <use xlink:href="#img-89784b4d-13" x="332.05" y="50.73"/>
          <use xlink:href="#img-89784b4d-13" x="335.36" y="50.73"/>
          <use xlink:href="#img-89784b4d-13" x="338.67" y="50.73"/>
          <use xlink:href="#img-89784b4d-13" x="341.98" y="50.73"/>
          <use xlink:href="#img-89784b4d-13" x="345.29" y="50.73"/>
        </g>
      </g>
    </g>
  </g>
</g>
  <g class="guide ylabels" font-size="2.82" font-family="'PT Sans Caption','Helvetica Neue','Helvetica',sans-serif" fill="#6C606B" id="img-89784b4d-14">
    <text x="14.59" y="181.92" text-anchor="end" dy="0.35em">-6</text>
    <text x="14.59" y="138.19" text-anchor="end" dy="0.35em">-4</text>
    <text x="14.59" y="94.46" text-anchor="end" dy="0.35em">-2</text>
    <text x="14.59" y="50.73" text-anchor="end" dy="0.35em">0</text>
    <text x="14.59" y="7" text-anchor="end" dy="0.35em">2</text>
  </g>
  <g font-size="3.88" font-family="'PT Sans','Helvetica Neue','Helvetica',sans-serif" fill="#564A55" stroke="#000000" stroke-opacity="0.000" id="img-89784b4d-15">
    <text x="8.81" y="94.46" text-anchor="end" dy="0.35em">y</text>
  </g>
</g>
<defs>
  <clipPath id="img-89784b4d-4">
  <path d="M15.59,5 L 350.6 5 350.6 183.92 15.59 183.92" />
</clipPath>
  <g id="img-89784b4d-13">
    <circle cx="0" cy="0" r="0.9"/>
  </g>
</defs>
</svg>
