<?xml version="1.0" encoding="UTF-8"?>
<svg xmlns="http://www.w3.org/2000/svg"
     xmlns:xlink="http://www.w3.org/1999/xlink"
     xmlns:gadfly="http://www.gadflyjl.org/ns"
     version="1.2"
     width="355.6mm" height="203.2mm" viewBox="0 0 355.6 203.2"
     stroke="none"
     fill="#000000"
     stroke-width="0.3"
     font-size="3.88"
>
<g class="plotroot xscalable yscalable" id="img-bf0fd3de-1">
  <g font-size="3.88" font-family="'PT Sans','Helvetica Neue','Helvetica',sans-serif" fill="#564A55" stroke="#000000" stroke-opacity="0.000" id="img-bf0fd3de-2">
    <text x="184.55" y="191.59" text-anchor="middle" dy="0.6em">x</text>
  </g>
  <g class="guide xlabels" font-size="2.82" font-family="'PT Sans Caption','Helvetica Neue','Helvetica',sans-serif" fill="#6C606B" id="img-bf0fd3de-3">
    <text x="20.5" y="184.92" text-anchor="middle" dy="0.6em">0</text>
    <text x="102.52" y="184.92" text-anchor="middle" dy="0.6em">100</text>
    <text x="184.55" y="184.92" text-anchor="middle" dy="0.6em">200</text>
    <text x="266.57" y="184.92" text-anchor="middle" dy="0.6em">300</text>
    <text x="348.6" y="184.92" text-anchor="middle" dy="0.6em">400</text>
  </g>
<g clip-path="url(#img-bf0fd3de-4)">
  <g id="img-bf0fd3de-5">
    <g pointer-events="visible" opacity="1" fill="#000000" fill-opacity="0.000" stroke="#000000" stroke-opacity="0.000" class="guide background" id="img-bf0fd3de-6">
      <rect x="18.5" y="5" width="332.1" height="178.92"/>
    </g>
    <g class="guide ygridlines xfixed" stroke-dasharray="0.5,0.5" stroke-width="0.2" stroke="#D0D0E0" id="img-bf0fd3de-7">
      <path fill="none" d="M18.5,181.91 L 350.6 181.91"/>
      <path fill="none" d="M18.5,138.19 L 350.6 138.19"/>
      <path fill="none" d="M18.5,94.46 L 350.6 94.46"/>
      <path fill="none" d="M18.5,50.73 L 350.6 50.73"/>
      <path fill="none" d="M18.5,7 L 350.6 7"/>
    </g>
    <g class="guide xgridlines yfixed" stroke-dasharray="0.5,0.5" stroke-width="0.2" stroke="#D0D0E0" id="img-bf0fd3de-8">
      <path fill="none" d="M20.5,5 L 20.5 183.92"/>
      <path fill="none" d="M102.52,5 L 102.52 183.92"/>
      <path fill="none" d="M184.55,5 L 184.55 183.92"/>
      <path fill="none" d="M266.57,5 L 266.57 183.92"/>
      <path fill="none" d="M348.6,5 L 348.6 183.92"/>
    </g>
    <g class="plotpanel" id="img-bf0fd3de-9">
      <g stroke-width="0.3" fill="#000000" fill-opacity="0.000" class="geometry" stroke-dasharray="none" stroke="#00BFFF" id="img-bf0fd3de-10">
        <path fill="none" d="M21.32,181.91 L 22.14 181.91 22.96 181.91 23.78 181.91 24.6 181.91 25.42 181.91 26.24 181.91 27.06 181.91 27.88 181.91 28.7 181.91 29.52 181.91 30.34 181.91 31.16 181.91 31.98 181.91 32.8 181.91 33.62 181.91 34.44 181.91 35.26 181.91 36.08 181.91 36.9 181.91 37.72 181.91 38.54 181.91 39.36 181.91 40.19 181.91 41.01 181.91 41.83 181.91 42.65 181.91 43.47 181.91 44.29 181.91 45.11 181.91 45.93 181.91 46.75 181.91 47.57 181.91 48.39 181.91 49.21 181.91 50.03 181.91 50.85 181.91 51.67 181.91 52.49 181.91 53.31 181.91 54.13 181.91 54.95 181.91 55.77 181.91 56.59 181.91 57.41 181.91 58.23 181.91 59.05 181.91 59.87 181.91 60.69 181.91 61.51 181.91 62.33 181.91 63.15 181.91 63.97 181.91 64.79 181.91 65.61 181.91 66.43 181.91 67.25 181.91 68.07 181.91 68.89 181.91 69.71 181.91 70.53 181.91 71.35 181.91 72.18 181.91 73 181.91 73.82 181.91 74.64 181.91 75.46 181.91 76.28 181.91 77.1 181.91 77.92 181.91 78.74 181.91 79.56 181.91 80.38 181.91 81.2 181.91 82.02 181.91 82.84 181.91 83.66 181.91 84.48 181.91 85.3 181.91 86.12 181.91 86.94 181.91 87.76 181.91 88.58 181.91 89.4 181.91 90.22 181.91 91.04 181.91 91.86 181.91 92.68 181.91 93.5 181.91 94.32 181.91 95.14 181.91 95.96 181.91 96.78 181.91 97.6 181.91 98.42 181.91 99.24 181.91 100.06 181.91 100.88 181.91 101.7 181.91 102.52 181.91 103.34 181.91 104.16 181.91 104.99 181.91 105.81 181.91 106.63 181.91 107.45 181.91 108.27 181.91 109.09 181.91 109.91 181.91 110.73 181.91 111.55 181.91 112.37 181.91 113.19 181.91 114.01 181.91 114.83 181.91 115.65 181.91 116.47 181.91 117.29 181.91 118.11 181.91 118.93 181.91 119.75 181.91 120.57 181.91 121.39 181.91 122.21 181.91 123.03 181.91 123.85 181.91 124.67 181.91 125.49 181.91 126.31 181.91 127.13 181.91 127.95 181.91 128.77 181.91 129.59 181.91 130.41 181.91 131.23 181.91 132.05 181.91 132.87 181.91 133.69 181.91 134.51 181.91 135.33 181.91 136.15 181.91 136.97 181.91 137.8 181.91 138.62 181.91 139.44 181.91 140.26 181.91 141.08 181.91 141.9 181.91 142.72 181.91 143.54 181.91 144.36 181.91 145.18 181.91 146 181.91 146.82 181.91 147.64 181.91 148.46 181.91 149.28 181.91 150.1 181.91 150.92 181.91 151.74 181.91 152.56 181.91 153.38 181.91 154.2 181.91 155.02 181.91 155.84 181.91 156.66 181.91 157.48 181.91 158.3 181.91 159.12 181.91 159.94 181.91 160.76 181.91 161.58 181.91 162.4 181.91 163.22 181.91 164.04 181.91 164.86 181.91 165.68 181.91 166.5 181.91 167.32 181.91 168.14 181.91 168.96 181.91 169.79 181.91 170.61 181.91 171.43 181.91 172.25 181.91 173.07 181.91 173.89 181.91 174.71 181.91 175.53 181.91 176.35 181.91 177.17 181.91 177.99 181.91 178.81 181.91 179.63 181.91 180.45 181.91 181.27 181.91 182.09 181.91 182.91 181.91 183.73 181.91 184.55 181.91 185.37 181.91 186.19 181.91 187.01 181.91 187.83 181.91 188.65 181.91 189.47 181.91 190.29 181.91 191.11 181.91 191.93 181.91 192.75 181.91 193.57 181.91 194.39 181.91 195.21 181.91 196.03 181.91 196.85 181.91 197.67 181.91 198.49 181.91 199.31 181.91 200.13 181.91 200.95 181.91 201.77 181.91 202.6 181.91 203.42 181.91 204.24 181.91 205.06 181.91 205.88 181.91 206.7 181.91 207.52 181.91 208.34 181.91 209.16 181.91 209.98 181.91 210.8 181.91 211.62 181.91 212.44 181.91 213.26 181.91 214.08 181.91 214.9 181.91 215.72 181.91 216.54 181.91 217.36 181.91 218.18 181.91 219 181.91 219.82 181.91 220.64 181.91 221.46 181.91 222.28 181.91 223.1 181.91 223.92 181.91 224.74 181.91 225.56 181.91 226.38 181.91 227.2 181.91 228.02 181.91 228.84 181.91 229.66 181.91 230.48 181.91 231.3 181.91 232.12 181.91 232.94 181.91 233.76 181.91 234.58 181.91 235.41 181.91 236.23 181.91 237.05 181.91 237.87 181.91 238.69 181.91 239.51 181.91 240.33 181.91 241.15 181.91 241.97 181.91 242.79 181.91 243.61 181.91 244.43 181.91 245.25 181.91 246.07 181.91 246.89 181.91 247.71 181.91 248.53 181.91 249.35 181.91 250.17 181.91 250.99 181.91 251.81 181.91 252.63 181.91 253.45 181.91 254.27 181.91 255.09 181.91 255.91 181.91 256.73 181.91 257.55 181.91 258.37 181.91 259.19 181.91 260.01 181.91 260.83 181.91 261.65 181.91 262.47 181.91 263.29 181.91 264.11 181.91 264.93 181.91 265.75 181.91 266.57 181.91 267.4 181.91 268.22 181.91 269.04 181.91 269.86 181.91 270.68 181.91 271.5 181.91 272.32 181.91 273.14 181.91 273.96 181.91 274.78 181.91 275.6 181.91 276.42 181.91 277.24 181.91 278.06 181.91 278.88 181.91 279.7 181.91 280.52 181.91 281.34 181.91 282.16 181.91 282.98 181.91 283.8 181.91 284.62 181.91 285.44 181.91 286.26 181.91 287.08 181.91 287.9 181.91 288.72 181.91 289.54 181.91 290.36 181.91 291.18 181.91 292 181.91 292.82 181.91 293.64 181.91 294.46 21.58"/>
      </g>
      <g class="geometry" id="img-bf0fd3de-11">
        <g class="color_RGBA{Float32}(0.0f0,0.74736935f0,1.0f0,1.0f0)" stroke="#FFFFFF" stroke-width="0.3" fill="#00BFFF" id="img-bf0fd3de-12">
          <use xlink:href="#img-bf0fd3de-13" x="21.32" y="181.91"/>
          <use xlink:href="#img-bf0fd3de-13" x="22.14" y="181.91"/>
          <use xlink:href="#img-bf0fd3de-13" x="22.96" y="181.91"/>
          <use xlink:href="#img-bf0fd3de-13" x="23.78" y="181.91"/>
          <use xlink:href="#img-bf0fd3de-13" x="24.6" y="181.91"/>
          <use xlink:href="#img-bf0fd3de-13" x="25.42" y="181.91"/>
          <use xlink:href="#img-bf0fd3de-13" x="26.24" y="181.91"/>
          <use xlink:href="#img-bf0fd3de-13" x="27.06" y="181.91"/>
          <use xlink:href="#img-bf0fd3de-13" x="27.88" y="181.91"/>
          <use xlink:href="#img-bf0fd3de-13" x="28.7" y="181.91"/>
          <use xlink:href="#img-bf0fd3de-13" x="29.52" y="181.91"/>
          <use xlink:href="#img-bf0fd3de-13" x="30.34" y="181.91"/>
          <use xlink:href="#img-bf0fd3de-13" x="31.16" y="181.91"/>
          <use xlink:href="#img-bf0fd3de-13" x="31.98" y="181.91"/>
          <use xlink:href="#img-bf0fd3de-13" x="32.8" y="181.91"/>
          <use xlink:href="#img-bf0fd3de-13" x="33.62" y="181.91"/>
          <use xlink:href="#img-bf0fd3de-13" x="34.44" y="181.91"/>
          <use xlink:href="#img-bf0fd3de-13" x="35.26" y="181.91"/>
          <use xlink:href="#img-bf0fd3de-13" x="36.08" y="181.91"/>
          <use xlink:href="#img-bf0fd3de-13" x="36.9" y="181.91"/>
          <use xlink:href="#img-bf0fd3de-13" x="37.72" y="181.91"/>
          <use xlink:href="#img-bf0fd3de-13" x="38.54" y="181.91"/>
          <use xlink:href="#img-bf0fd3de-13" x="39.36" y="181.91"/>
          <use xlink:href="#img-bf0fd3de-13" x="40.19" y="181.91"/>
          <use xlink:href="#img-bf0fd3de-13" x="41.01" y="181.91"/>
          <use xlink:href="#img-bf0fd3de-13" x="41.83" y="181.91"/>
          <use xlink:href="#img-bf0fd3de-13" x="42.65" y="181.91"/>
          <use xlink:href="#img-bf0fd3de-13" x="43.47" y="181.91"/>
          <use xlink:href="#img-bf0fd3de-13" x="44.29" y="181.91"/>
          <use xlink:href="#img-bf0fd3de-13" x="45.11" y="181.91"/>
          <use xlink:href="#img-bf0fd3de-13" x="45.93" y="181.91"/>
          <use xlink:href="#img-bf0fd3de-13" x="46.75" y="181.91"/>
          <use xlink:href="#img-bf0fd3de-13" x="47.57" y="181.91"/>
          <use xlink:href="#img-bf0fd3de-13" x="48.39" y="181.91"/>
          <use xlink:href="#img-bf0fd3de-13" x="49.21" y="181.91"/>
          <use xlink:href="#img-bf0fd3de-13" x="50.03" y="181.91"/>
          <use xlink:href="#img-bf0fd3de-13" x="50.85" y="181.91"/>
          <use xlink:href="#img-bf0fd3de-13" x="51.67" y="181.91"/>
          <use xlink:href="#img-bf0fd3de-13" x="52.49" y="181.91"/>
          <use xlink:href="#img-bf0fd3de-13" x="53.31" y="181.91"/>
          <use xlink:href="#img-bf0fd3de-13" x="54.13" y="181.91"/>
          <use xlink:href="#img-bf0fd3de-13" x="54.95" y="181.91"/>
          <use xlink:href="#img-bf0fd3de-13" x="55.77" y="181.91"/>
          <use xlink:href="#img-bf0fd3de-13" x="56.59" y="181.91"/>
          <use xlink:href="#img-bf0fd3de-13" x="57.41" y="181.91"/>
          <use xlink:href="#img-bf0fd3de-13" x="58.23" y="181.91"/>
          <use xlink:href="#img-bf0fd3de-13" x="59.05" y="181.91"/>
          <use xlink:href="#img-bf0fd3de-13" x="59.87" y="181.91"/>
          <use xlink:href="#img-bf0fd3de-13" x="60.69" y="181.91"/>
          <use xlink:href="#img-bf0fd3de-13" x="61.51" y="181.91"/>
          <use xlink:href="#img-bf0fd3de-13" x="62.33" y="181.91"/>
          <use xlink:href="#img-bf0fd3de-13" x="63.15" y="181.91"/>
          <use xlink:href="#img-bf0fd3de-13" x="63.97" y="181.91"/>
          <use xlink:href="#img-bf0fd3de-13" x="64.79" y="181.91"/>
          <use xlink:href="#img-bf0fd3de-13" x="65.61" y="181.91"/>
          <use xlink:href="#img-bf0fd3de-13" x="66.43" y="181.91"/>
          <use xlink:href="#img-bf0fd3de-13" x="67.25" y="181.91"/>
          <use xlink:href="#img-bf0fd3de-13" x="68.07" y="181.91"/>
          <use xlink:href="#img-bf0fd3de-13" x="68.89" y="181.91"/>
          <use xlink:href="#img-bf0fd3de-13" x="69.71" y="181.91"/>
          <use xlink:href="#img-bf0fd3de-13" x="70.53" y="181.91"/>
          <use xlink:href="#img-bf0fd3de-13" x="71.35" y="181.91"/>
          <use xlink:href="#img-bf0fd3de-13" x="72.18" y="181.91"/>
          <use xlink:href="#img-bf0fd3de-13" x="73" y="181.91"/>
          <use xlink:href="#img-bf0fd3de-13" x="73.82" y="181.91"/>
          <use xlink:href="#img-bf0fd3de-13" x="74.64" y="181.91"/>
          <use xlink:href="#img-bf0fd3de-13" x="75.46" y="181.91"/>
          <use xlink:href="#img-bf0fd3de-13" x="76.28" y="181.91"/>
          <use xlink:href="#img-bf0fd3de-13" x="77.1" y="181.91"/>
          <use xlink:href="#img-bf0fd3de-13" x="77.92" y="181.91"/>
          <use xlink:href="#img-bf0fd3de-13" x="78.74" y="181.91"/>
          <use xlink:href="#img-bf0fd3de-13" x="79.56" y="181.91"/>
          <use xlink:href="#img-bf0fd3de-13" x="80.38" y="181.91"/>
          <use xlink:href="#img-bf0fd3de-13" x="81.2" y="181.91"/>
          <use xlink:href="#img-bf0fd3de-13" x="82.02" y="181.91"/>
          <use xlink:href="#img-bf0fd3de-13" x="82.84" y="181.91"/>
          <use xlink:href="#img-bf0fd3de-13" x="83.66" y="181.91"/>
          <use xlink:href="#img-bf0fd3de-13" x="84.48" y="181.91"/>
          <use xlink:href="#img-bf0fd3de-13" x="85.3" y="181.91"/>
          <use xlink:href="#img-bf0fd3de-13" x="86.12" y="181.91"/>
          <use xlink:href="#img-bf0fd3de-13" x="86.94" y="181.91"/>
          <use xlink:href="#img-bf0fd3de-13" x="87.76" y="181.91"/>
          <use xlink:href="#img-bf0fd3de-13" x="88.58" y="181.91"/>
          <use xlink:href="#img-bf0fd3de-13" x="89.4" y="181.91"/>
          <use xlink:href="#img-bf0fd3de-13" x="90.22" y="181.91"/>
          <use xlink:href="#img-bf0fd3de-13" x="91.04" y="181.91"/>
          <use xlink:href="#img-bf0fd3de-13" x="91.86" y="181.91"/>
          <use xlink:href="#img-bf0fd3de-13" x="92.68" y="181.91"/>
          <use xlink:href="#img-bf0fd3de-13" x="93.5" y="181.91"/>
          <use xlink:href="#img-bf0fd3de-13" x="94.32" y="181.91"/>
          <use xlink:href="#img-bf0fd3de-13" x="95.14" y="181.91"/>
          <use xlink:href="#img-bf0fd3de-13" x="95.96" y="181.91"/>
          <use xlink:href="#img-bf0fd3de-13" x="96.78" y="181.91"/>
          <use xlink:href="#img-bf0fd3de-13" x="97.6" y="181.91"/>
          <use xlink:href="#img-bf0fd3de-13" x="98.42" y="181.91"/>
          <use xlink:href="#img-bf0fd3de-13" x="99.24" y="181.91"/>
          <use xlink:href="#img-bf0fd3de-13" x="100.06" y="181.91"/>
          <use xlink:href="#img-bf0fd3de-13" x="100.88" y="181.91"/>
          <use xlink:href="#img-bf0fd3de-13" x="101.7" y="181.91"/>
          <use xlink:href="#img-bf0fd3de-13" x="102.52" y="181.91"/>
          <use xlink:href="#img-bf0fd3de-13" x="103.34" y="181.91"/>
          <use xlink:href="#img-bf0fd3de-13" x="104.16" y="181.91"/>
          <use xlink:href="#img-bf0fd3de-13" x="104.99" y="181.91"/>
          <use xlink:href="#img-bf0fd3de-13" x="105.81" y="181.91"/>
          <use xlink:href="#img-bf0fd3de-13" x="106.63" y="181.91"/>
          <use xlink:href="#img-bf0fd3de-13" x="107.45" y="181.91"/>
          <use xlink:href="#img-bf0fd3de-13" x="108.27" y="181.91"/>
          <use xlink:href="#img-bf0fd3de-13" x="109.09" y="181.91"/>
          <use xlink:href="#img-bf0fd3de-13" x="109.91" y="181.91"/>
          <use xlink:href="#img-bf0fd3de-13" x="110.73" y="181.91"/>
          <use xlink:href="#img-bf0fd3de-13" x="111.55" y="181.91"/>
          <use xlink:href="#img-bf0fd3de-13" x="112.37" y="181.91"/>
          <use xlink:href="#img-bf0fd3de-13" x="113.19" y="181.91"/>
          <use xlink:href="#img-bf0fd3de-13" x="114.01" y="181.91"/>
          <use xlink:href="#img-bf0fd3de-13" x="114.83" y="181.91"/>
          <use xlink:href="#img-bf0fd3de-13" x="115.65" y="181.91"/>
          <use xlink:href="#img-bf0fd3de-13" x="116.47" y="181.91"/>
          <use xlink:href="#img-bf0fd3de-13" x="117.29" y="181.91"/>
          <use xlink:href="#img-bf0fd3de-13" x="118.11" y="181.91"/>
          <use xlink:href="#img-bf0fd3de-13" x="118.93" y="181.91"/>
          <use xlink:href="#img-bf0fd3de-13" x="119.75" y="181.91"/>
          <use xlink:href="#img-bf0fd3de-13" x="120.57" y="181.91"/>
          <use xlink:href="#img-bf0fd3de-13" x="121.39" y="181.91"/>
          <use xlink:href="#img-bf0fd3de-13" x="122.21" y="181.91"/>
          <use xlink:href="#img-bf0fd3de-13" x="123.03" y="181.91"/>
          <use xlink:href="#img-bf0fd3de-13" x="123.85" y="181.91"/>
          <use xlink:href="#img-bf0fd3de-13" x="124.67" y="181.91"/>
          <use xlink:href="#img-bf0fd3de-13" x="125.49" y="181.91"/>
          <use xlink:href="#img-bf0fd3de-13" x="126.31" y="181.91"/>
          <use xlink:href="#img-bf0fd3de-13" x="127.13" y="181.91"/>
          <use xlink:href="#img-bf0fd3de-13" x="127.95" y="181.91"/>
          <use xlink:href="#img-bf0fd3de-13" x="128.77" y="181.91"/>
          <use xlink:href="#img-bf0fd3de-13" x="129.59" y="181.91"/>
          <use xlink:href="#img-bf0fd3de-13" x="130.41" y="181.91"/>
          <use xlink:href="#img-bf0fd3de-13" x="131.23" y="181.91"/>
          <use xlink:href="#img-bf0fd3de-13" x="132.05" y="181.91"/>
          <use xlink:href="#img-bf0fd3de-13" x="132.87" y="181.91"/>
          <use xlink:href="#img-bf0fd3de-13" x="133.69" y="181.91"/>
          <use xlink:href="#img-bf0fd3de-13" x="134.51" y="181.91"/>
          <use xlink:href="#img-bf0fd3de-13" x="135.33" y="181.91"/>
          <use xlink:href="#img-bf0fd3de-13" x="136.15" y="181.91"/>
          <use xlink:href="#img-bf0fd3de-13" x="136.97" y="181.91"/>
          <use xlink:href="#img-bf0fd3de-13" x="137.8" y="181.91"/>
          <use xlink:href="#img-bf0fd3de-13" x="138.62" y="181.91"/>
          <use xlink:href="#img-bf0fd3de-13" x="139.44" y="181.91"/>
          <use xlink:href="#img-bf0fd3de-13" x="140.26" y="181.91"/>
          <use xlink:href="#img-bf0fd3de-13" x="141.08" y="181.91"/>
          <use xlink:href="#img-bf0fd3de-13" x="141.9" y="181.91"/>
          <use xlink:href="#img-bf0fd3de-13" x="142.72" y="181.91"/>
          <use xlink:href="#img-bf0fd3de-13" x="143.54" y="181.91"/>
          <use xlink:href="#img-bf0fd3de-13" x="144.36" y="181.91"/>
          <use xlink:href="#img-bf0fd3de-13" x="145.18" y="181.91"/>
          <use xlink:href="#img-bf0fd3de-13" x="146" y="181.91"/>
          <use xlink:href="#img-bf0fd3de-13" x="146.82" y="181.91"/>
          <use xlink:href="#img-bf0fd3de-13" x="147.64" y="181.91"/>
          <use xlink:href="#img-bf0fd3de-13" x="148.46" y="181.91"/>
          <use xlink:href="#img-bf0fd3de-13" x="149.28" y="181.91"/>
          <use xlink:href="#img-bf0fd3de-13" x="150.1" y="181.91"/>
          <use xlink:href="#img-bf0fd3de-13" x="150.92" y="181.91"/>
          <use xlink:href="#img-bf0fd3de-13" x="151.74" y="181.91"/>
          <use xlink:href="#img-bf0fd3de-13" x="152.56" y="181.91"/>
          <use xlink:href="#img-bf0fd3de-13" x="153.38" y="181.91"/>
          <use xlink:href="#img-bf0fd3de-13" x="154.2" y="181.91"/>
          <use xlink:href="#img-bf0fd3de-13" x="155.02" y="181.91"/>
          <use xlink:href="#img-bf0fd3de-13" x="155.84" y="181.91"/>
          <use xlink:href="#img-bf0fd3de-13" x="156.66" y="181.91"/>
          <use xlink:href="#img-bf0fd3de-13" x="157.48" y="181.91"/>
          <use xlink:href="#img-bf0fd3de-13" x="158.3" y="181.91"/>
          <use xlink:href="#img-bf0fd3de-13" x="159.12" y="181.91"/>
          <use xlink:href="#img-bf0fd3de-13" x="159.94" y="181.91"/>
          <use xlink:href="#img-bf0fd3de-13" x="160.76" y="181.91"/>
          <use xlink:href="#img-bf0fd3de-13" x="161.58" y="181.91"/>
          <use xlink:href="#img-bf0fd3de-13" x="162.4" y="181.91"/>
          <use xlink:href="#img-bf0fd3de-13" x="163.22" y="181.91"/>
          <use xlink:href="#img-bf0fd3de-13" x="164.04" y="181.91"/>
          <use xlink:href="#img-bf0fd3de-13" x="164.86" y="181.91"/>
          <use xlink:href="#img-bf0fd3de-13" x="165.68" y="181.91"/>
          <use xlink:href="#img-bf0fd3de-13" x="166.5" y="181.91"/>
          <use xlink:href="#img-bf0fd3de-13" x="167.32" y="181.91"/>
          <use xlink:href="#img-bf0fd3de-13" x="168.14" y="181.91"/>
          <use xlink:href="#img-bf0fd3de-13" x="168.96" y="181.91"/>
          <use xlink:href="#img-bf0fd3de-13" x="169.79" y="181.91"/>
          <use xlink:href="#img-bf0fd3de-13" x="170.61" y="181.91"/>
          <use xlink:href="#img-bf0fd3de-13" x="171.43" y="181.91"/>
          <use xlink:href="#img-bf0fd3de-13" x="172.25" y="181.91"/>
          <use xlink:href="#img-bf0fd3de-13" x="173.07" y="181.91"/>
          <use xlink:href="#img-bf0fd3de-13" x="173.89" y="181.91"/>
          <use xlink:href="#img-bf0fd3de-13" x="174.71" y="181.91"/>
          <use xlink:href="#img-bf0fd3de-13" x="175.53" y="181.91"/>
          <use xlink:href="#img-bf0fd3de-13" x="176.35" y="181.91"/>
          <use xlink:href="#img-bf0fd3de-13" x="177.17" y="181.91"/>
          <use xlink:href="#img-bf0fd3de-13" x="177.99" y="181.91"/>
          <use xlink:href="#img-bf0fd3de-13" x="178.81" y="181.91"/>
          <use xlink:href="#img-bf0fd3de-13" x="179.63" y="181.91"/>
          <use xlink:href="#img-bf0fd3de-13" x="180.45" y="181.91"/>
          <use xlink:href="#img-bf0fd3de-13" x="181.27" y="181.91"/>
          <use xlink:href="#img-bf0fd3de-13" x="182.09" y="181.91"/>
          <use xlink:href="#img-bf0fd3de-13" x="182.91" y="181.91"/>
          <use xlink:href="#img-bf0fd3de-13" x="183.73" y="181.91"/>
          <use xlink:href="#img-bf0fd3de-13" x="184.55" y="181.91"/>
          <use xlink:href="#img-bf0fd3de-13" x="185.37" y="181.91"/>
          <use xlink:href="#img-bf0fd3de-13" x="186.19" y="181.91"/>
          <use xlink:href="#img-bf0fd3de-13" x="187.01" y="181.91"/>
          <use xlink:href="#img-bf0fd3de-13" x="187.83" y="181.91"/>
          <use xlink:href="#img-bf0fd3de-13" x="188.65" y="181.91"/>
          <use xlink:href="#img-bf0fd3de-13" x="189.47" y="181.91"/>
          <use xlink:href="#img-bf0fd3de-13" x="190.29" y="181.91"/>
          <use xlink:href="#img-bf0fd3de-13" x="191.11" y="181.91"/>
          <use xlink:href="#img-bf0fd3de-13" x="191.93" y="181.91"/>
          <use xlink:href="#img-bf0fd3de-13" x="192.75" y="181.91"/>
          <use xlink:href="#img-bf0fd3de-13" x="193.57" y="181.91"/>
          <use xlink:href="#img-bf0fd3de-13" x="194.39" y="181.91"/>
          <use xlink:href="#img-bf0fd3de-13" x="195.21" y="181.91"/>
          <use xlink:href="#img-bf0fd3de-13" x="196.03" y="181.91"/>
          <use xlink:href="#img-bf0fd3de-13" x="196.85" y="181.91"/>
          <use xlink:href="#img-bf0fd3de-13" x="197.67" y="181.91"/>
          <use xlink:href="#img-bf0fd3de-13" x="198.49" y="181.91"/>
          <use xlink:href="#img-bf0fd3de-13" x="199.31" y="181.91"/>
          <use xlink:href="#img-bf0fd3de-13" x="200.13" y="181.91"/>
          <use xlink:href="#img-bf0fd3de-13" x="200.95" y="181.91"/>
          <use xlink:href="#img-bf0fd3de-13" x="201.77" y="181.91"/>
          <use xlink:href="#img-bf0fd3de-13" x="202.6" y="181.91"/>
          <use xlink:href="#img-bf0fd3de-13" x="203.42" y="181.91"/>
          <use xlink:href="#img-bf0fd3de-13" x="204.24" y="181.91"/>
          <use xlink:href="#img-bf0fd3de-13" x="205.06" y="181.91"/>
          <use xlink:href="#img-bf0fd3de-13" x="205.88" y="181.91"/>
          <use xlink:href="#img-bf0fd3de-13" x="206.7" y="181.91"/>
          <use xlink:href="#img-bf0fd3de-13" x="207.52" y="181.91"/>
          <use xlink:href="#img-bf0fd3de-13" x="208.34" y="181.91"/>
          <use xlink:href="#img-bf0fd3de-13" x="209.16" y="181.91"/>
          <use xlink:href="#img-bf0fd3de-13" x="209.98" y="181.91"/>
          <use xlink:href="#img-bf0fd3de-13" x="210.8" y="181.91"/>
          <use xlink:href="#img-bf0fd3de-13" x="211.62" y="181.91"/>
          <use xlink:href="#img-bf0fd3de-13" x="212.44" y="181.91"/>
          <use xlink:href="#img-bf0fd3de-13" x="213.26" y="181.91"/>
          <use xlink:href="#img-bf0fd3de-13" x="214.08" y="181.91"/>
          <use xlink:href="#img-bf0fd3de-13" x="214.9" y="181.91"/>
          <use xlink:href="#img-bf0fd3de-13" x="215.72" y="181.91"/>
          <use xlink:href="#img-bf0fd3de-13" x="216.54" y="181.91"/>
          <use xlink:href="#img-bf0fd3de-13" x="217.36" y="181.91"/>
          <use xlink:href="#img-bf0fd3de-13" x="218.18" y="181.91"/>
          <use xlink:href="#img-bf0fd3de-13" x="219" y="181.91"/>
          <use xlink:href="#img-bf0fd3de-13" x="219.82" y="181.91"/>
          <use xlink:href="#img-bf0fd3de-13" x="220.64" y="181.91"/>
          <use xlink:href="#img-bf0fd3de-13" x="221.46" y="181.91"/>
          <use xlink:href="#img-bf0fd3de-13" x="222.28" y="181.91"/>
          <use xlink:href="#img-bf0fd3de-13" x="223.1" y="181.91"/>
          <use xlink:href="#img-bf0fd3de-13" x="223.92" y="181.91"/>
          <use xlink:href="#img-bf0fd3de-13" x="224.74" y="181.91"/>
          <use xlink:href="#img-bf0fd3de-13" x="225.56" y="181.91"/>
          <use xlink:href="#img-bf0fd3de-13" x="226.38" y="181.91"/>
          <use xlink:href="#img-bf0fd3de-13" x="227.2" y="181.91"/>
          <use xlink:href="#img-bf0fd3de-13" x="228.02" y="181.91"/>
          <use xlink:href="#img-bf0fd3de-13" x="228.84" y="181.91"/>
          <use xlink:href="#img-bf0fd3de-13" x="229.66" y="181.91"/>
          <use xlink:href="#img-bf0fd3de-13" x="230.48" y="181.91"/>
          <use xlink:href="#img-bf0fd3de-13" x="231.3" y="181.91"/>
          <use xlink:href="#img-bf0fd3de-13" x="232.12" y="181.91"/>
          <use xlink:href="#img-bf0fd3de-13" x="232.94" y="181.91"/>
          <use xlink:href="#img-bf0fd3de-13" x="233.76" y="181.91"/>
          <use xlink:href="#img-bf0fd3de-13" x="234.58" y="181.91"/>
          <use xlink:href="#img-bf0fd3de-13" x="235.41" y="181.91"/>
          <use xlink:href="#img-bf0fd3de-13" x="236.23" y="181.91"/>
          <use xlink:href="#img-bf0fd3de-13" x="237.05" y="181.91"/>
          <use xlink:href="#img-bf0fd3de-13" x="237.87" y="181.91"/>
          <use xlink:href="#img-bf0fd3de-13" x="238.69" y="181.91"/>
          <use xlink:href="#img-bf0fd3de-13" x="239.51" y="181.91"/>
          <use xlink:href="#img-bf0fd3de-13" x="240.33" y="181.91"/>
          <use xlink:href="#img-bf0fd3de-13" x="241.15" y="181.91"/>
          <use xlink:href="#img-bf0fd3de-13" x="241.97" y="181.91"/>
          <use xlink:href="#img-bf0fd3de-13" x="242.79" y="181.91"/>
          <use xlink:href="#img-bf0fd3de-13" x="243.61" y="181.91"/>
          <use xlink:href="#img-bf0fd3de-13" x="244.43" y="181.91"/>
          <use xlink:href="#img-bf0fd3de-13" x="245.25" y="181.91"/>
          <use xlink:href="#img-bf0fd3de-13" x="246.07" y="181.91"/>
          <use xlink:href="#img-bf0fd3de-13" x="246.89" y="181.91"/>
          <use xlink:href="#img-bf0fd3de-13" x="247.71" y="181.91"/>
          <use xlink:href="#img-bf0fd3de-13" x="248.53" y="181.91"/>
          <use xlink:href="#img-bf0fd3de-13" x="249.35" y="181.91"/>
          <use xlink:href="#img-bf0fd3de-13" x="250.17" y="181.91"/>
          <use xlink:href="#img-bf0fd3de-13" x="250.99" y="181.91"/>
          <use xlink:href="#img-bf0fd3de-13" x="251.81" y="181.91"/>
          <use xlink:href="#img-bf0fd3de-13" x="252.63" y="181.91"/>
          <use xlink:href="#img-bf0fd3de-13" x="253.45" y="181.91"/>
          <use xlink:href="#img-bf0fd3de-13" x="254.27" y="181.91"/>
          <use xlink:href="#img-bf0fd3de-13" x="255.09" y="181.91"/>
          <use xlink:href="#img-bf0fd3de-13" x="255.91" y="181.91"/>
          <use xlink:href="#img-bf0fd3de-13" x="256.73" y="181.91"/>
          <use xlink:href="#img-bf0fd3de-13" x="257.55" y="181.91"/>
          <use xlink:href="#img-bf0fd3de-13" x="258.37" y="181.91"/>
          <use xlink:href="#img-bf0fd3de-13" x="259.19" y="181.91"/>
          <use xlink:href="#img-bf0fd3de-13" x="260.01" y="181.91"/>
          <use xlink:href="#img-bf0fd3de-13" x="260.83" y="181.91"/>
          <use xlink:href="#img-bf0fd3de-13" x="261.65" y="181.91"/>
          <use xlink:href="#img-bf0fd3de-13" x="262.47" y="181.91"/>
          <use xlink:href="#img-bf0fd3de-13" x="263.29" y="181.91"/>
          <use xlink:href="#img-bf0fd3de-13" x="264.11" y="181.91"/>
          <use xlink:href="#img-bf0fd3de-13" x="264.93" y="181.91"/>
          <use xlink:href="#img-bf0fd3de-13" x="265.75" y="181.91"/>
          <use xlink:href="#img-bf0fd3de-13" x="266.57" y="181.91"/>
          <use xlink:href="#img-bf0fd3de-13" x="267.4" y="181.91"/>
          <use xlink:href="#img-bf0fd3de-13" x="268.22" y="181.91"/>
          <use xlink:href="#img-bf0fd3de-13" x="269.04" y="181.91"/>
          <use xlink:href="#img-bf0fd3de-13" x="269.86" y="181.91"/>
          <use xlink:href="#img-bf0fd3de-13" x="270.68" y="181.91"/>
          <use xlink:href="#img-bf0fd3de-13" x="271.5" y="181.91"/>
          <use xlink:href="#img-bf0fd3de-13" x="272.32" y="181.91"/>
          <use xlink:href="#img-bf0fd3de-13" x="273.14" y="181.91"/>
          <use xlink:href="#img-bf0fd3de-13" x="273.96" y="181.91"/>
          <use xlink:href="#img-bf0fd3de-13" x="274.78" y="181.91"/>
          <use xlink:href="#img-bf0fd3de-13" x="275.6" y="181.91"/>
          <use xlink:href="#img-bf0fd3de-13" x="276.42" y="181.91"/>
          <use xlink:href="#img-bf0fd3de-13" x="277.24" y="181.91"/>
          <use xlink:href="#img-bf0fd3de-13" x="278.06" y="181.91"/>
          <use xlink:href="#img-bf0fd3de-13" x="278.88" y="181.91"/>
          <use xlink:href="#img-bf0fd3de-13" x="279.7" y="181.91"/>
          <use xlink:href="#img-bf0fd3de-13" x="280.52" y="181.91"/>
          <use xlink:href="#img-bf0fd3de-13" x="281.34" y="181.91"/>
          <use xlink:href="#img-bf0fd3de-13" x="282.16" y="181.91"/>
          <use xlink:href="#img-bf0fd3de-13" x="282.98" y="181.91"/>
          <use xlink:href="#img-bf0fd3de-13" x="283.8" y="181.91"/>
          <use xlink:href="#img-bf0fd3de-13" x="284.62" y="181.91"/>
          <use xlink:href="#img-bf0fd3de-13" x="285.44" y="181.91"/>
          <use xlink:href="#img-bf0fd3de-13" x="286.26" y="181.91"/>
          <use xlink:href="#img-bf0fd3de-13" x="287.08" y="181.91"/>
          <use xlink:href="#img-bf0fd3de-13" x="287.9" y="181.91"/>
          <use xlink:href="#img-bf0fd3de-13" x="288.72" y="181.91"/>
          <use xlink:href="#img-bf0fd3de-13" x="289.54" y="181.91"/>
          <use xlink:href="#img-bf0fd3de-13" x="290.36" y="181.91"/>
          <use xlink:href="#img-bf0fd3de-13" x="291.18" y="181.91"/>
          <use xlink:href="#img-bf0fd3de-13" x="292" y="181.91"/>
          <use xlink:href="#img-bf0fd3de-13" x="292.82" y="181.91"/>
          <use xlink:href="#img-bf0fd3de-13" x="293.64" y="181.91"/>
          <use xlink:href="#img-bf0fd3de-13" x="294.46" y="21.58"/>
        </g>
      </g>
    </g>
  </g>
</g>
  <g class="guide ylabels" font-size="2.82" font-family="'PT Sans Caption','Helvetica Neue','Helvetica',sans-serif" fill="#6C606B" id="img-bf0fd3de-14">
    <text x="17.5" y="181.91" text-anchor="end" dy="0.35em">0.00</text>
    <text x="17.5" y="138.19" text-anchor="end" dy="0.35em">0.01</text>
    <text x="17.5" y="94.46" text-anchor="end" dy="0.35em">0.02</text>
    <text x="17.5" y="50.73" text-anchor="end" dy="0.35em">0.03</text>
    <text x="17.5" y="7" text-anchor="end" dy="0.35em">0.04</text>
  </g>
  <g font-size="3.88" font-family="'PT Sans','Helvetica Neue','Helvetica',sans-serif" fill="#564A55" stroke="#000000" stroke-opacity="0.000" id="img-bf0fd3de-15">
    <text x="8.81" y="94.46" text-anchor="end" dy="0.35em">y</text>
  </g>
</g>
<defs>
  <clipPath id="img-bf0fd3de-4">
  <path d="M18.5,5 L 350.6 5 350.6 183.92 18.5 183.92" />
</clipPath>
  <g id="img-bf0fd3de-13">
    <circle cx="0" cy="0" r="0.9"/>
  </g>
</defs>
</svg>
