<?xml version="1.0" encoding="UTF-8"?>
<svg xmlns="http://www.w3.org/2000/svg"
     xmlns:xlink="http://www.w3.org/1999/xlink"
     xmlns:gadfly="http://www.gadflyjl.org/ns"
     version="1.2"
     width="355.6mm" height="203.2mm" viewBox="0 0 355.6 203.2"
     stroke="none"
     fill="#000000"
     stroke-width="0.3"
     font-size="3.88"
>
<g class="plotroot xscalable yscalable" id="img-e5165b89-1">
  <g font-size="3.88" font-family="'PT Sans','Helvetica Neue','Helvetica',sans-serif" fill="#564A55" stroke="#000000" stroke-opacity="0.000" id="img-e5165b89-2">
    <text x="183.93" y="191.59" text-anchor="middle" dy="0.6em">x</text>
  </g>
  <g class="guide xlabels" font-size="2.82" font-family="'PT Sans Caption','Helvetica Neue','Helvetica',sans-serif" fill="#6C606B" id="img-e5165b89-3">
    <text x="19.27" y="184.92" text-anchor="middle" dy="0.6em">0</text>
    <text x="101.6" y="184.92" text-anchor="middle" dy="0.6em">100</text>
    <text x="183.93" y="184.92" text-anchor="middle" dy="0.6em">200</text>
    <text x="266.27" y="184.92" text-anchor="middle" dy="0.6em">300</text>
    <text x="348.6" y="184.92" text-anchor="middle" dy="0.6em">400</text>
  </g>
<g clip-path="url(#img-e5165b89-4)">
  <g id="img-e5165b89-5">
    <g pointer-events="visible" opacity="1" fill="#000000" fill-opacity="0.000" stroke="#000000" stroke-opacity="0.000" class="guide background" id="img-e5165b89-6">
      <rect x="17.27" y="5" width="333.33" height="178.92"/>
    </g>
    <g class="guide ygridlines xfixed" stroke-dasharray="0.5,0.5" stroke-width="0.2" stroke="#D0D0E0" id="img-e5165b89-7">
      <path fill="none" d="M17.27,181.91 L 350.6 181.91"/>
      <path fill="none" d="M17.27,123.61 L 350.6 123.61"/>
      <path fill="none" d="M17.27,65.3 L 350.6 65.3"/>
      <path fill="none" d="M17.27,7 L 350.6 7"/>
    </g>
    <g class="guide xgridlines yfixed" stroke-dasharray="0.5,0.5" stroke-width="0.2" stroke="#D0D0E0" id="img-e5165b89-8">
      <path fill="none" d="M19.27,5 L 19.27 183.92"/>
      <path fill="none" d="M101.6,5 L 101.6 183.92"/>
      <path fill="none" d="M183.93,5 L 183.93 183.92"/>
      <path fill="none" d="M266.27,5 L 266.27 183.92"/>
      <path fill="none" d="M348.6,5 L 348.6 183.92"/>
    </g>
    <g class="plotpanel" id="img-e5165b89-9">
      <g stroke-width="0.3" fill="#000000" fill-opacity="0.000" class="geometry" stroke-dasharray="none" stroke="#00BFFF" id="img-e5165b89-10">
        <path fill="none" d="M20.09,65.3 L 20.91 63.46 21.74 65.3 22.56 65.3 23.38 61.91 24.21 53.52 25.03 64.9 25.85 65.3 26.68 65.3 27.5 65.3 28.32 65.3 29.15 65.3 29.97 65.3 30.79 58.6 31.62 65.3 32.44 65.3 33.26 65.3 34.09 65.3 34.91 65.3 35.73 65.44 36.56 65.3 37.38 65.3 38.2 65.6 39.03 65.3 39.85 65.3 40.67 65.3 41.5 65.3 42.32 65.3 43.14 65.3 43.97 65.3 44.79 65.3 45.61 65.3 46.44 65.3 47.26 65.3 48.08 65.3 48.91 65.3 49.73 65.3 50.55 65.3 51.38 65.3 52.2 65.48 53.02 67.99 53.85 65.3 54.67 65.3 55.49 65.3 56.32 65.3 57.14 65.3 57.96 65.3 58.79 65.3 59.61 65.3 60.43 65.3 61.26 65.3 62.08 65.3 62.9 65.3 63.73 65.3 64.55 65.3 65.37 65.3 66.2 65.3 67.02 65.3 67.84 65.3 68.67 65.3 69.49 65.3 70.31 65.3 71.14 65.3 71.96 65.3 72.78 65.3 73.61 65.3 74.43 74.89 75.25 94.11 76.08 69.19 76.9 65.3 77.72 65.3 78.55 65.3 79.37 65.3 80.19 65.3 81.02 65.3 81.84 65.3 82.66 65.3 83.49 65.3 84.31 65.3 85.13 65.3 85.96 65.3 86.78 65.3 87.6 65.3 88.43 65.3 89.25 65.3 90.07 65.3 90.9 65.3 91.72 65.3 92.54 121.51 93.37 65.3 94.19 65.3 95.01 65.3 95.84 65.3 96.66 65.3 97.48 66.72 98.31 65.3 99.13 65.3 99.95 65.3 100.78 65.3 101.6 65.3 102.42 72.22 103.25 87.91 104.07 65.3 104.89 65.3 105.72 65.3 106.54 65.3 107.36 65.3 108.19 65.3 109.01 65.3 109.83 65.3 110.66 65.3 111.48 65.3 112.3 65.3 113.13 65.3 113.95 65.3 114.77 65.3 115.6 65.3 116.42 65.3 117.24 65.3 118.07 65.3 118.89 65.3 119.71 65.3 120.54 65.3 121.36 65.3 122.18 65.3 123.01 65.3 123.83 65.3 124.65 65.3 125.48 65.3 126.3 65.3 127.12 65.3 127.95 65.3 128.77 65.3 129.59 65.3 130.42 65.3 131.24 65.3 132.06 65.2 132.89 65.18 133.71 65.3 134.53 65.3 135.36 65.3 136.18 65.3 137 65.3 137.83 65.3 138.65 65.3 139.47 65.24 140.3 65.3 141.12 65.3 141.94 65.3 142.77 65.3 143.59 65.3 144.41 65.3 145.24 65.3 146.06 65.3 146.88 65.3 147.71 65.3 148.53 65.3 149.35 65.3 150.18 65.22 151 65.19 151.82 53 152.65 56.27 153.47 58.72 154.29 54.22 155.12 29.82 155.94 64.75 156.76 65.3 157.59 65.3 158.41 65.3 159.23 65.28 160.06 65.3 160.88 65.28 161.7 65.3 162.53 49.42 163.35 12.28 164.17 65.3 165 65.3 165.82 65.3 166.64 65.3 167.47 65.3 168.29 65.3 169.11 65.3 169.94 65.3 170.76 65.3 171.58 65.3 172.41 65.3 173.23 65.3 174.05 65.3 174.88 65.3 175.7 65.3 176.52 65.3 177.35 65.3 178.17 65.3 178.99 65.39 179.82 65.3 180.64 65.3 181.46 65.3 182.29 65.3 183.11 65.3 183.93 65.3 184.76 65.3 185.58 65.3 186.4 65.3 187.23 65.3 188.05 65.3 188.87 65.3 189.7 65.39 190.52 65.41 191.34 65.42 192.17 65.42 192.99 65.3 193.81 65.3 194.64 65.3 195.46 65.3 196.28 65.3 197.11 65.3 197.93 65.3 198.75 65.3 199.58 65.3 200.4 65.3 201.22 65.3 202.05 65.3 202.87 65.3 203.69 65.3 204.52 65.3 205.34 65.3 206.16 65.3 206.99 65.3 207.81 65.3 208.63 65.3 209.46 65.3 210.28 65.3 211.1 65.3 211.93 65.3 212.75 65.3 213.57 65.3 214.4 65.3 215.22 65.3 216.04 65.3 216.87 65.3 217.69 65.3 218.51 65.3 219.34 65.3 220.16 65.3 220.98 65.3 221.81 65.3 222.63 65.3 223.45 65.3 224.28 65.3 225.1 65.3 225.92 65.3 226.75 65.3 227.57 65.3 228.39 65.3 229.22 65.3 230.04 65.3 230.86 65.3 231.69 65.3 232.51 65.3 233.33 65.3 234.16 65.21 234.98 65.3 235.8 65.3 236.63 65.3 237.45 65.3 238.27 65.3 239.1 65.2 239.92 65.3 240.74 65.26 241.57 65.13 242.39 65.3 243.21 65.3 244.04 65.3 244.86 65.3 245.68 65.3 246.51 65.3 247.33 65.3 248.15 65.3 248.98 65.3 249.8 65.3 250.62 65.3 251.45 65.3 252.27 65.3 253.09 65.3 253.92 65.3 254.74 65.3 255.56 65.3 256.39 65.3 257.21 65.3 258.03 65.3 258.86 65.3 259.68 65.3 260.5 65.3 261.33 65.3 262.15 65.23 262.97 65.3 263.8 65.24 264.62 47.99 265.44 59.09 266.27 65.3 267.09 65.3 267.91 65.3 268.74 65.3 269.56 65.3 270.38 65.3 271.21 65.3 272.03 65.3 272.85 65.23 273.68 65.3 274.5 65.3 275.32 65.3 276.15 65.3 276.97 65.3 277.79 65.3 278.62 65.3 279.44 65.3 280.26 65.3 281.09 65.3 281.91 65.3 282.73 65.3 283.56 65.3 284.38 65.3 285.2 65.3 286.03 65.3 286.85 65.3 287.67 65.3 288.5 65.3 289.32 65.3 290.14 65.3 290.97 65.3 291.79 125.06 292.61 65.3 293.44 65.3 294.26 55.49"/>
      </g>
      <g class="geometry" id="img-e5165b89-11">
        <g class="color_RGBA{Float32}(0.0f0,0.74736935f0,1.0f0,1.0f0)" stroke="#FFFFFF" stroke-width="0.3" fill="#00BFFF" id="img-e5165b89-12">
          <use xlink:href="#img-e5165b89-13" x="20.09" y="65.3"/>
          <use xlink:href="#img-e5165b89-13" x="20.91" y="63.46"/>
          <use xlink:href="#img-e5165b89-13" x="21.74" y="65.3"/>
          <use xlink:href="#img-e5165b89-13" x="22.56" y="65.3"/>
          <use xlink:href="#img-e5165b89-13" x="23.38" y="61.91"/>
          <use xlink:href="#img-e5165b89-13" x="24.21" y="53.52"/>
          <use xlink:href="#img-e5165b89-13" x="25.03" y="64.9"/>
          <use xlink:href="#img-e5165b89-13" x="25.85" y="65.3"/>
          <use xlink:href="#img-e5165b89-13" x="26.68" y="65.3"/>
          <use xlink:href="#img-e5165b89-13" x="27.5" y="65.3"/>
          <use xlink:href="#img-e5165b89-13" x="28.32" y="65.3"/>
          <use xlink:href="#img-e5165b89-13" x="29.15" y="65.3"/>
          <use xlink:href="#img-e5165b89-13" x="29.97" y="65.3"/>
          <use xlink:href="#img-e5165b89-13" x="30.79" y="58.6"/>
          <use xlink:href="#img-e5165b89-13" x="31.62" y="65.3"/>
          <use xlink:href="#img-e5165b89-13" x="32.44" y="65.3"/>
          <use xlink:href="#img-e5165b89-13" x="33.26" y="65.3"/>
          <use xlink:href="#img-e5165b89-13" x="34.09" y="65.3"/>
          <use xlink:href="#img-e5165b89-13" x="34.91" y="65.3"/>
          <use xlink:href="#img-e5165b89-13" x="35.73" y="65.44"/>
          <use xlink:href="#img-e5165b89-13" x="36.56" y="65.3"/>
          <use xlink:href="#img-e5165b89-13" x="37.38" y="65.3"/>
          <use xlink:href="#img-e5165b89-13" x="38.2" y="65.6"/>
          <use xlink:href="#img-e5165b89-13" x="39.03" y="65.3"/>
          <use xlink:href="#img-e5165b89-13" x="39.85" y="65.3"/>
          <use xlink:href="#img-e5165b89-13" x="40.67" y="65.3"/>
          <use xlink:href="#img-e5165b89-13" x="41.5" y="65.3"/>
          <use xlink:href="#img-e5165b89-13" x="42.32" y="65.3"/>
          <use xlink:href="#img-e5165b89-13" x="43.14" y="65.3"/>
          <use xlink:href="#img-e5165b89-13" x="43.97" y="65.3"/>
          <use xlink:href="#img-e5165b89-13" x="44.79" y="65.3"/>
          <use xlink:href="#img-e5165b89-13" x="45.61" y="65.3"/>
          <use xlink:href="#img-e5165b89-13" x="46.44" y="65.3"/>
          <use xlink:href="#img-e5165b89-13" x="47.26" y="65.3"/>
          <use xlink:href="#img-e5165b89-13" x="48.08" y="65.3"/>
          <use xlink:href="#img-e5165b89-13" x="48.91" y="65.3"/>
          <use xlink:href="#img-e5165b89-13" x="49.73" y="65.3"/>
          <use xlink:href="#img-e5165b89-13" x="50.55" y="65.3"/>
          <use xlink:href="#img-e5165b89-13" x="51.38" y="65.3"/>
          <use xlink:href="#img-e5165b89-13" x="52.2" y="65.48"/>
          <use xlink:href="#img-e5165b89-13" x="53.02" y="67.99"/>
          <use xlink:href="#img-e5165b89-13" x="53.85" y="65.3"/>
          <use xlink:href="#img-e5165b89-13" x="54.67" y="65.3"/>
          <use xlink:href="#img-e5165b89-13" x="55.49" y="65.3"/>
          <use xlink:href="#img-e5165b89-13" x="56.32" y="65.3"/>
          <use xlink:href="#img-e5165b89-13" x="57.14" y="65.3"/>
          <use xlink:href="#img-e5165b89-13" x="57.96" y="65.3"/>
          <use xlink:href="#img-e5165b89-13" x="58.79" y="65.3"/>
          <use xlink:href="#img-e5165b89-13" x="59.61" y="65.3"/>
          <use xlink:href="#img-e5165b89-13" x="60.43" y="65.3"/>
          <use xlink:href="#img-e5165b89-13" x="61.26" y="65.3"/>
          <use xlink:href="#img-e5165b89-13" x="62.08" y="65.3"/>
          <use xlink:href="#img-e5165b89-13" x="62.9" y="65.3"/>
          <use xlink:href="#img-e5165b89-13" x="63.73" y="65.3"/>
          <use xlink:href="#img-e5165b89-13" x="64.55" y="65.3"/>
          <use xlink:href="#img-e5165b89-13" x="65.37" y="65.3"/>
          <use xlink:href="#img-e5165b89-13" x="66.2" y="65.3"/>
          <use xlink:href="#img-e5165b89-13" x="67.02" y="65.3"/>
          <use xlink:href="#img-e5165b89-13" x="67.84" y="65.3"/>
          <use xlink:href="#img-e5165b89-13" x="68.67" y="65.3"/>
          <use xlink:href="#img-e5165b89-13" x="69.49" y="65.3"/>
          <use xlink:href="#img-e5165b89-13" x="70.31" y="65.3"/>
          <use xlink:href="#img-e5165b89-13" x="71.14" y="65.3"/>
          <use xlink:href="#img-e5165b89-13" x="71.96" y="65.3"/>
          <use xlink:href="#img-e5165b89-13" x="72.78" y="65.3"/>
          <use xlink:href="#img-e5165b89-13" x="73.61" y="65.3"/>
          <use xlink:href="#img-e5165b89-13" x="74.43" y="74.89"/>
          <use xlink:href="#img-e5165b89-13" x="75.25" y="94.11"/>
          <use xlink:href="#img-e5165b89-13" x="76.08" y="69.19"/>
          <use xlink:href="#img-e5165b89-13" x="76.9" y="65.3"/>
          <use xlink:href="#img-e5165b89-13" x="77.72" y="65.3"/>
          <use xlink:href="#img-e5165b89-13" x="78.55" y="65.3"/>
          <use xlink:href="#img-e5165b89-13" x="79.37" y="65.3"/>
          <use xlink:href="#img-e5165b89-13" x="80.19" y="65.3"/>
          <use xlink:href="#img-e5165b89-13" x="81.02" y="65.3"/>
          <use xlink:href="#img-e5165b89-13" x="81.84" y="65.3"/>
          <use xlink:href="#img-e5165b89-13" x="82.66" y="65.3"/>
          <use xlink:href="#img-e5165b89-13" x="83.49" y="65.3"/>
          <use xlink:href="#img-e5165b89-13" x="84.31" y="65.3"/>
          <use xlink:href="#img-e5165b89-13" x="85.13" y="65.3"/>
          <use xlink:href="#img-e5165b89-13" x="85.96" y="65.3"/>
          <use xlink:href="#img-e5165b89-13" x="86.78" y="65.3"/>
          <use xlink:href="#img-e5165b89-13" x="87.6" y="65.3"/>
          <use xlink:href="#img-e5165b89-13" x="88.43" y="65.3"/>
          <use xlink:href="#img-e5165b89-13" x="89.25" y="65.3"/>
          <use xlink:href="#img-e5165b89-13" x="90.07" y="65.3"/>
          <use xlink:href="#img-e5165b89-13" x="90.9" y="65.3"/>
          <use xlink:href="#img-e5165b89-13" x="91.72" y="65.3"/>
          <use xlink:href="#img-e5165b89-13" x="92.54" y="121.51"/>
          <use xlink:href="#img-e5165b89-13" x="93.37" y="65.3"/>
          <use xlink:href="#img-e5165b89-13" x="94.19" y="65.3"/>
          <use xlink:href="#img-e5165b89-13" x="95.01" y="65.3"/>
          <use xlink:href="#img-e5165b89-13" x="95.84" y="65.3"/>
          <use xlink:href="#img-e5165b89-13" x="96.66" y="65.3"/>
          <use xlink:href="#img-e5165b89-13" x="97.48" y="66.72"/>
          <use xlink:href="#img-e5165b89-13" x="98.31" y="65.3"/>
          <use xlink:href="#img-e5165b89-13" x="99.13" y="65.3"/>
          <use xlink:href="#img-e5165b89-13" x="99.95" y="65.3"/>
          <use xlink:href="#img-e5165b89-13" x="100.78" y="65.3"/>
          <use xlink:href="#img-e5165b89-13" x="101.6" y="65.3"/>
          <use xlink:href="#img-e5165b89-13" x="102.42" y="72.22"/>
          <use xlink:href="#img-e5165b89-13" x="103.25" y="87.91"/>
          <use xlink:href="#img-e5165b89-13" x="104.07" y="65.3"/>
          <use xlink:href="#img-e5165b89-13" x="104.89" y="65.3"/>
          <use xlink:href="#img-e5165b89-13" x="105.72" y="65.3"/>
          <use xlink:href="#img-e5165b89-13" x="106.54" y="65.3"/>
          <use xlink:href="#img-e5165b89-13" x="107.36" y="65.3"/>
          <use xlink:href="#img-e5165b89-13" x="108.19" y="65.3"/>
          <use xlink:href="#img-e5165b89-13" x="109.01" y="65.3"/>
          <use xlink:href="#img-e5165b89-13" x="109.83" y="65.3"/>
          <use xlink:href="#img-e5165b89-13" x="110.66" y="65.3"/>
          <use xlink:href="#img-e5165b89-13" x="111.48" y="65.3"/>
          <use xlink:href="#img-e5165b89-13" x="112.3" y="65.3"/>
          <use xlink:href="#img-e5165b89-13" x="113.13" y="65.3"/>
          <use xlink:href="#img-e5165b89-13" x="113.95" y="65.3"/>
          <use xlink:href="#img-e5165b89-13" x="114.77" y="65.3"/>
          <use xlink:href="#img-e5165b89-13" x="115.6" y="65.3"/>
          <use xlink:href="#img-e5165b89-13" x="116.42" y="65.3"/>
          <use xlink:href="#img-e5165b89-13" x="117.24" y="65.3"/>
          <use xlink:href="#img-e5165b89-13" x="118.07" y="65.3"/>
          <use xlink:href="#img-e5165b89-13" x="118.89" y="65.3"/>
          <use xlink:href="#img-e5165b89-13" x="119.71" y="65.3"/>
          <use xlink:href="#img-e5165b89-13" x="120.54" y="65.3"/>
          <use xlink:href="#img-e5165b89-13" x="121.36" y="65.3"/>
          <use xlink:href="#img-e5165b89-13" x="122.18" y="65.3"/>
          <use xlink:href="#img-e5165b89-13" x="123.01" y="65.3"/>
          <use xlink:href="#img-e5165b89-13" x="123.83" y="65.3"/>
          <use xlink:href="#img-e5165b89-13" x="124.65" y="65.3"/>
          <use xlink:href="#img-e5165b89-13" x="125.48" y="65.3"/>
          <use xlink:href="#img-e5165b89-13" x="126.3" y="65.3"/>
          <use xlink:href="#img-e5165b89-13" x="127.12" y="65.3"/>
          <use xlink:href="#img-e5165b89-13" x="127.95" y="65.3"/>
          <use xlink:href="#img-e5165b89-13" x="128.77" y="65.3"/>
          <use xlink:href="#img-e5165b89-13" x="129.59" y="65.3"/>
          <use xlink:href="#img-e5165b89-13" x="130.42" y="65.3"/>
          <use xlink:href="#img-e5165b89-13" x="131.24" y="65.3"/>
          <use xlink:href="#img-e5165b89-13" x="132.06" y="65.2"/>
          <use xlink:href="#img-e5165b89-13" x="132.89" y="65.18"/>
          <use xlink:href="#img-e5165b89-13" x="133.71" y="65.3"/>
          <use xlink:href="#img-e5165b89-13" x="134.53" y="65.3"/>
          <use xlink:href="#img-e5165b89-13" x="135.36" y="65.3"/>
          <use xlink:href="#img-e5165b89-13" x="136.18" y="65.3"/>
          <use xlink:href="#img-e5165b89-13" x="137" y="65.3"/>
          <use xlink:href="#img-e5165b89-13" x="137.83" y="65.3"/>
          <use xlink:href="#img-e5165b89-13" x="138.65" y="65.3"/>
          <use xlink:href="#img-e5165b89-13" x="139.47" y="65.24"/>
          <use xlink:href="#img-e5165b89-13" x="140.3" y="65.3"/>
          <use xlink:href="#img-e5165b89-13" x="141.12" y="65.3"/>
          <use xlink:href="#img-e5165b89-13" x="141.94" y="65.3"/>
          <use xlink:href="#img-e5165b89-13" x="142.77" y="65.3"/>
          <use xlink:href="#img-e5165b89-13" x="143.59" y="65.3"/>
          <use xlink:href="#img-e5165b89-13" x="144.41" y="65.3"/>
          <use xlink:href="#img-e5165b89-13" x="145.24" y="65.3"/>
          <use xlink:href="#img-e5165b89-13" x="146.06" y="65.3"/>
          <use xlink:href="#img-e5165b89-13" x="146.88" y="65.3"/>
          <use xlink:href="#img-e5165b89-13" x="147.71" y="65.3"/>
          <use xlink:href="#img-e5165b89-13" x="148.53" y="65.3"/>
          <use xlink:href="#img-e5165b89-13" x="149.35" y="65.3"/>
          <use xlink:href="#img-e5165b89-13" x="150.18" y="65.22"/>
          <use xlink:href="#img-e5165b89-13" x="151" y="65.19"/>
          <use xlink:href="#img-e5165b89-13" x="151.82" y="53"/>
          <use xlink:href="#img-e5165b89-13" x="152.65" y="56.27"/>
          <use xlink:href="#img-e5165b89-13" x="153.47" y="58.72"/>
          <use xlink:href="#img-e5165b89-13" x="154.29" y="54.22"/>
          <use xlink:href="#img-e5165b89-13" x="155.12" y="29.82"/>
          <use xlink:href="#img-e5165b89-13" x="155.94" y="64.75"/>
          <use xlink:href="#img-e5165b89-13" x="156.76" y="65.3"/>
          <use xlink:href="#img-e5165b89-13" x="157.59" y="65.3"/>
          <use xlink:href="#img-e5165b89-13" x="158.41" y="65.3"/>
          <use xlink:href="#img-e5165b89-13" x="159.23" y="65.28"/>
          <use xlink:href="#img-e5165b89-13" x="160.06" y="65.3"/>
          <use xlink:href="#img-e5165b89-13" x="160.88" y="65.28"/>
          <use xlink:href="#img-e5165b89-13" x="161.7" y="65.3"/>
          <use xlink:href="#img-e5165b89-13" x="162.53" y="49.42"/>
          <use xlink:href="#img-e5165b89-13" x="163.35" y="12.28"/>
          <use xlink:href="#img-e5165b89-13" x="164.17" y="65.3"/>
          <use xlink:href="#img-e5165b89-13" x="165" y="65.3"/>
          <use xlink:href="#img-e5165b89-13" x="165.82" y="65.3"/>
          <use xlink:href="#img-e5165b89-13" x="166.64" y="65.3"/>
          <use xlink:href="#img-e5165b89-13" x="167.47" y="65.3"/>
          <use xlink:href="#img-e5165b89-13" x="168.29" y="65.3"/>
          <use xlink:href="#img-e5165b89-13" x="169.11" y="65.3"/>
          <use xlink:href="#img-e5165b89-13" x="169.94" y="65.3"/>
          <use xlink:href="#img-e5165b89-13" x="170.76" y="65.3"/>
          <use xlink:href="#img-e5165b89-13" x="171.58" y="65.3"/>
          <use xlink:href="#img-e5165b89-13" x="172.41" y="65.3"/>
          <use xlink:href="#img-e5165b89-13" x="173.23" y="65.3"/>
          <use xlink:href="#img-e5165b89-13" x="174.05" y="65.3"/>
          <use xlink:href="#img-e5165b89-13" x="174.88" y="65.3"/>
          <use xlink:href="#img-e5165b89-13" x="175.7" y="65.3"/>
          <use xlink:href="#img-e5165b89-13" x="176.52" y="65.3"/>
          <use xlink:href="#img-e5165b89-13" x="177.35" y="65.3"/>
          <use xlink:href="#img-e5165b89-13" x="178.17" y="65.3"/>
          <use xlink:href="#img-e5165b89-13" x="178.99" y="65.39"/>
          <use xlink:href="#img-e5165b89-13" x="179.82" y="65.3"/>
          <use xlink:href="#img-e5165b89-13" x="180.64" y="65.3"/>
          <use xlink:href="#img-e5165b89-13" x="181.46" y="65.3"/>
          <use xlink:href="#img-e5165b89-13" x="182.29" y="65.3"/>
          <use xlink:href="#img-e5165b89-13" x="183.11" y="65.3"/>
          <use xlink:href="#img-e5165b89-13" x="183.93" y="65.3"/>
          <use xlink:href="#img-e5165b89-13" x="184.76" y="65.3"/>
          <use xlink:href="#img-e5165b89-13" x="185.58" y="65.3"/>
          <use xlink:href="#img-e5165b89-13" x="186.4" y="65.3"/>
          <use xlink:href="#img-e5165b89-13" x="187.23" y="65.3"/>
          <use xlink:href="#img-e5165b89-13" x="188.05" y="65.3"/>
          <use xlink:href="#img-e5165b89-13" x="188.87" y="65.3"/>
          <use xlink:href="#img-e5165b89-13" x="189.7" y="65.39"/>
          <use xlink:href="#img-e5165b89-13" x="190.52" y="65.41"/>
          <use xlink:href="#img-e5165b89-13" x="191.34" y="65.42"/>
          <use xlink:href="#img-e5165b89-13" x="192.17" y="65.42"/>
          <use xlink:href="#img-e5165b89-13" x="192.99" y="65.3"/>
          <use xlink:href="#img-e5165b89-13" x="193.81" y="65.3"/>
          <use xlink:href="#img-e5165b89-13" x="194.64" y="65.3"/>
          <use xlink:href="#img-e5165b89-13" x="195.46" y="65.3"/>
          <use xlink:href="#img-e5165b89-13" x="196.28" y="65.3"/>
          <use xlink:href="#img-e5165b89-13" x="197.11" y="65.3"/>
          <use xlink:href="#img-e5165b89-13" x="197.93" y="65.3"/>
          <use xlink:href="#img-e5165b89-13" x="198.75" y="65.3"/>
          <use xlink:href="#img-e5165b89-13" x="199.58" y="65.3"/>
          <use xlink:href="#img-e5165b89-13" x="200.4" y="65.3"/>
          <use xlink:href="#img-e5165b89-13" x="201.22" y="65.3"/>
          <use xlink:href="#img-e5165b89-13" x="202.05" y="65.3"/>
          <use xlink:href="#img-e5165b89-13" x="202.87" y="65.3"/>
          <use xlink:href="#img-e5165b89-13" x="203.69" y="65.3"/>
          <use xlink:href="#img-e5165b89-13" x="204.52" y="65.3"/>
          <use xlink:href="#img-e5165b89-13" x="205.34" y="65.3"/>
          <use xlink:href="#img-e5165b89-13" x="206.16" y="65.3"/>
          <use xlink:href="#img-e5165b89-13" x="206.99" y="65.3"/>
          <use xlink:href="#img-e5165b89-13" x="207.81" y="65.3"/>
          <use xlink:href="#img-e5165b89-13" x="208.63" y="65.3"/>
          <use xlink:href="#img-e5165b89-13" x="209.46" y="65.3"/>
          <use xlink:href="#img-e5165b89-13" x="210.28" y="65.3"/>
          <use xlink:href="#img-e5165b89-13" x="211.1" y="65.3"/>
          <use xlink:href="#img-e5165b89-13" x="211.93" y="65.3"/>
          <use xlink:href="#img-e5165b89-13" x="212.75" y="65.3"/>
          <use xlink:href="#img-e5165b89-13" x="213.57" y="65.3"/>
          <use xlink:href="#img-e5165b89-13" x="214.4" y="65.3"/>
          <use xlink:href="#img-e5165b89-13" x="215.22" y="65.3"/>
          <use xlink:href="#img-e5165b89-13" x="216.04" y="65.3"/>
          <use xlink:href="#img-e5165b89-13" x="216.87" y="65.3"/>
          <use xlink:href="#img-e5165b89-13" x="217.69" y="65.3"/>
          <use xlink:href="#img-e5165b89-13" x="218.51" y="65.3"/>
          <use xlink:href="#img-e5165b89-13" x="219.34" y="65.3"/>
          <use xlink:href="#img-e5165b89-13" x="220.16" y="65.3"/>
          <use xlink:href="#img-e5165b89-13" x="220.98" y="65.3"/>
          <use xlink:href="#img-e5165b89-13" x="221.81" y="65.3"/>
          <use xlink:href="#img-e5165b89-13" x="222.63" y="65.3"/>
          <use xlink:href="#img-e5165b89-13" x="223.45" y="65.3"/>
          <use xlink:href="#img-e5165b89-13" x="224.28" y="65.3"/>
          <use xlink:href="#img-e5165b89-13" x="225.1" y="65.3"/>
          <use xlink:href="#img-e5165b89-13" x="225.92" y="65.3"/>
          <use xlink:href="#img-e5165b89-13" x="226.75" y="65.3"/>
          <use xlink:href="#img-e5165b89-13" x="227.57" y="65.3"/>
          <use xlink:href="#img-e5165b89-13" x="228.39" y="65.3"/>
          <use xlink:href="#img-e5165b89-13" x="229.22" y="65.3"/>
          <use xlink:href="#img-e5165b89-13" x="230.04" y="65.3"/>
          <use xlink:href="#img-e5165b89-13" x="230.86" y="65.3"/>
          <use xlink:href="#img-e5165b89-13" x="231.69" y="65.3"/>
          <use xlink:href="#img-e5165b89-13" x="232.51" y="65.3"/>
          <use xlink:href="#img-e5165b89-13" x="233.33" y="65.3"/>
          <use xlink:href="#img-e5165b89-13" x="234.16" y="65.21"/>
          <use xlink:href="#img-e5165b89-13" x="234.98" y="65.3"/>
          <use xlink:href="#img-e5165b89-13" x="235.8" y="65.3"/>
          <use xlink:href="#img-e5165b89-13" x="236.63" y="65.3"/>
          <use xlink:href="#img-e5165b89-13" x="237.45" y="65.3"/>
          <use xlink:href="#img-e5165b89-13" x="238.27" y="65.3"/>
          <use xlink:href="#img-e5165b89-13" x="239.1" y="65.2"/>
          <use xlink:href="#img-e5165b89-13" x="239.92" y="65.3"/>
          <use xlink:href="#img-e5165b89-13" x="240.74" y="65.26"/>
          <use xlink:href="#img-e5165b89-13" x="241.57" y="65.13"/>
          <use xlink:href="#img-e5165b89-13" x="242.39" y="65.3"/>
          <use xlink:href="#img-e5165b89-13" x="243.21" y="65.3"/>
          <use xlink:href="#img-e5165b89-13" x="244.04" y="65.3"/>
          <use xlink:href="#img-e5165b89-13" x="244.86" y="65.3"/>
          <use xlink:href="#img-e5165b89-13" x="245.68" y="65.3"/>
          <use xlink:href="#img-e5165b89-13" x="246.51" y="65.3"/>
          <use xlink:href="#img-e5165b89-13" x="247.33" y="65.3"/>
          <use xlink:href="#img-e5165b89-13" x="248.15" y="65.3"/>
          <use xlink:href="#img-e5165b89-13" x="248.98" y="65.3"/>
          <use xlink:href="#img-e5165b89-13" x="249.8" y="65.3"/>
          <use xlink:href="#img-e5165b89-13" x="250.62" y="65.3"/>
          <use xlink:href="#img-e5165b89-13" x="251.45" y="65.3"/>
          <use xlink:href="#img-e5165b89-13" x="252.27" y="65.3"/>
          <use xlink:href="#img-e5165b89-13" x="253.09" y="65.3"/>
          <use xlink:href="#img-e5165b89-13" x="253.92" y="65.3"/>
          <use xlink:href="#img-e5165b89-13" x="254.74" y="65.3"/>
          <use xlink:href="#img-e5165b89-13" x="255.56" y="65.3"/>
          <use xlink:href="#img-e5165b89-13" x="256.39" y="65.3"/>
          <use xlink:href="#img-e5165b89-13" x="257.21" y="65.3"/>
          <use xlink:href="#img-e5165b89-13" x="258.03" y="65.3"/>
          <use xlink:href="#img-e5165b89-13" x="258.86" y="65.3"/>
          <use xlink:href="#img-e5165b89-13" x="259.68" y="65.3"/>
          <use xlink:href="#img-e5165b89-13" x="260.5" y="65.3"/>
          <use xlink:href="#img-e5165b89-13" x="261.33" y="65.3"/>
          <use xlink:href="#img-e5165b89-13" x="262.15" y="65.23"/>
          <use xlink:href="#img-e5165b89-13" x="262.97" y="65.3"/>
          <use xlink:href="#img-e5165b89-13" x="263.8" y="65.24"/>
          <use xlink:href="#img-e5165b89-13" x="264.62" y="47.99"/>
          <use xlink:href="#img-e5165b89-13" x="265.44" y="59.09"/>
          <use xlink:href="#img-e5165b89-13" x="266.27" y="65.3"/>
          <use xlink:href="#img-e5165b89-13" x="267.09" y="65.3"/>
          <use xlink:href="#img-e5165b89-13" x="267.91" y="65.3"/>
          <use xlink:href="#img-e5165b89-13" x="268.74" y="65.3"/>
          <use xlink:href="#img-e5165b89-13" x="269.56" y="65.3"/>
          <use xlink:href="#img-e5165b89-13" x="270.38" y="65.3"/>
          <use xlink:href="#img-e5165b89-13" x="271.21" y="65.3"/>
          <use xlink:href="#img-e5165b89-13" x="272.03" y="65.3"/>
          <use xlink:href="#img-e5165b89-13" x="272.85" y="65.23"/>
          <use xlink:href="#img-e5165b89-13" x="273.68" y="65.3"/>
          <use xlink:href="#img-e5165b89-13" x="274.5" y="65.3"/>
          <use xlink:href="#img-e5165b89-13" x="275.32" y="65.3"/>
          <use xlink:href="#img-e5165b89-13" x="276.15" y="65.3"/>
          <use xlink:href="#img-e5165b89-13" x="276.97" y="65.3"/>
          <use xlink:href="#img-e5165b89-13" x="277.79" y="65.3"/>
          <use xlink:href="#img-e5165b89-13" x="278.62" y="65.3"/>
          <use xlink:href="#img-e5165b89-13" x="279.44" y="65.3"/>
          <use xlink:href="#img-e5165b89-13" x="280.26" y="65.3"/>
          <use xlink:href="#img-e5165b89-13" x="281.09" y="65.3"/>
          <use xlink:href="#img-e5165b89-13" x="281.91" y="65.3"/>
          <use xlink:href="#img-e5165b89-13" x="282.73" y="65.3"/>
          <use xlink:href="#img-e5165b89-13" x="283.56" y="65.3"/>
          <use xlink:href="#img-e5165b89-13" x="284.38" y="65.3"/>
          <use xlink:href="#img-e5165b89-13" x="285.2" y="65.3"/>
          <use xlink:href="#img-e5165b89-13" x="286.03" y="65.3"/>
          <use xlink:href="#img-e5165b89-13" x="286.85" y="65.3"/>
          <use xlink:href="#img-e5165b89-13" x="287.67" y="65.3"/>
          <use xlink:href="#img-e5165b89-13" x="288.5" y="65.3"/>
          <use xlink:href="#img-e5165b89-13" x="289.32" y="65.3"/>
          <use xlink:href="#img-e5165b89-13" x="290.14" y="65.3"/>
          <use xlink:href="#img-e5165b89-13" x="290.97" y="65.3"/>
          <use xlink:href="#img-e5165b89-13" x="291.79" y="125.06"/>
          <use xlink:href="#img-e5165b89-13" x="292.61" y="65.3"/>
          <use xlink:href="#img-e5165b89-13" x="293.44" y="65.3"/>
          <use xlink:href="#img-e5165b89-13" x="294.26" y="55.49"/>
        </g>
      </g>
    </g>
  </g>
</g>
  <g class="guide ylabels" font-size="2.82" font-family="'PT Sans Caption','Helvetica Neue','Helvetica',sans-serif" fill="#6C606B" id="img-e5165b89-14">
    <text x="16.27" y="181.91" text-anchor="end" dy="0.35em">-10</text>
    <text x="16.27" y="123.61" text-anchor="end" dy="0.35em">-5</text>
    <text x="16.27" y="65.3" text-anchor="end" dy="0.35em">0</text>
    <text x="16.27" y="7" text-anchor="end" dy="0.35em">5</text>
  </g>
  <g font-size="3.88" font-family="'PT Sans','Helvetica Neue','Helvetica',sans-serif" fill="#564A55" stroke="#000000" stroke-opacity="0.000" id="img-e5165b89-15">
    <text x="8.81" y="94.46" text-anchor="end" dy="0.35em">y</text>
  </g>
</g>
<defs>
  <clipPath id="img-e5165b89-4">
  <path d="M17.27,5 L 350.6 5 350.6 183.92 17.27 183.92" />
</clipPath>
  <g id="img-e5165b89-13">
    <circle cx="0" cy="0" r="0.9"/>
  </g>
</defs>
</svg>
